<?xml version="1.0" standalone="no"?>
<!DOCTYPE svg PUBLIC "-//W3C//DTD SVG 1.1//EN" "http://www.w3.org/Graphics/SVG/1.1/DTD/svg11.dtd" >
<svg>
<metadata>
Created by FontForge 20090622 at Tue Mar  8 06:09:36 2016
 By deploy user
Copyright (c) Boutros International, 2005. All rights reserved.
</metadata>
<defs>
<font id="GEDinarOne-Medium" horiz-adv-x="0" >
  <font-face 
    font-family="GE Dinar One"
    font-weight="500"
    font-stretch="normal"
    units-per-em="1000"
    panose-1="2 10 5 3 2 1 2 2 2 4"
    ascent="800"
    descent="-200"
    bbox="-114 -375 1302 1036"
    underline-thickness="50"
    underline-position="-50"
    unicode-range="U+0020-U+FEFF"
  />
<missing-glyph horiz-adv-x="500" 
d="M63 0h375v750h-375v-750zM125 63v625h250v-625h-250z" />
    <glyph glyph-name="alefmaddaabovearabic" unicode="&#x627;&#x653;" horiz-adv-x="181" 
d="M144 0v645l-95 -30v-615h95zM266 727l-44 32q-29 -26 -52 -26q-16 0 -51 15q-33 16 -63 16q-40 0 -96 -42l44 -31q28 26 59 26q15 0 47 -16q33 -15 60 -15q40 0 96 41z" />
    <glyph glyph-name="alefhamzaabovearabic" unicode="&#x627;&#x654;" horiz-adv-x="181" 
d="M144 0v645l-95 -30v-615h95zM176 683v34h-79v20q0 35 24 35q17 0 27 -15l22 28q-21 21 -46 21q-64 0 -64 -69v-20h-28l-21 -34h165z" />
    <glyph glyph-name="wawhamzaabovearabic" unicode="&#x648;&#x654;" horiz-adv-x="475" 
d="M434 39q0 15 3 63q1 29 1 73q0 115 -33 177q-46 82 -161 82q-104 0 -154 -71q-41 -59 -41 -153q0 -93 41 -152q50 -72 154 -72q52 0 95 24q-12 -113 -120 -119q-75 -5 -159 35l42 -92q43 -26 117 -26q106 0 162 68q51 59 53 163zM344 210q0 -141 -100 -141
q-101 0 -101 141q0 142 101 142q100 0 100 -142zM363 492v52h-145v25q0 61 51 61q26 0 46 -26l39 39q-37 37 -78 37q-52 0 -82 -33.5t-30 -85.5v-17h-45l-42 -52h286z" />
    <glyph glyph-name="alefhamzabelowarabic" unicode="&#x627;&#x655;" horiz-adv-x="181" 
d="M144 0v645l-95 -30v-615h95zM166 -195v35h-79v19q0 35 24 35q17 0 27 -15l22 28q-21 21 -46 21q-63 0 -63 -69v-19h-29l-21 -35h165z" />
    <glyph glyph-name="yehhamzaabovearabic" unicode="&#x64a;&#x654;" horiz-adv-x="646" 
d="M609 380q-65 71 -158 71q-87 0 -138 -48t-51 -129v-139h248v-118q0 -64 -56 -96q-44 -26 -115 -26q-104 0 -149 56q-45 55 -45 194l-96 -29q13 -154 69 -222q66 -86 221 -86q111 0 181 44q84 56 84 165v201h-247v49q0 102 99 102q70 0 122 -81zM213 192v58h-164v29
q0 68 58 68q30 0 52 -28l43 43q-41 41 -89 41q-58 0 -91.5 -37.5t-33.5 -96.5v-19h-50l-46 -58h321z" />
    <glyph glyph-name="shaddadammatanarabic" unicode="&#x64c;&#x651;" arabic-form="isolated" 
d="M218 866l-4 44q-17 11 -17 26q0 4 7.5 25.5t7.5 29.5q0 10 -4 19q-11 26 -48 26q-53 -26 -53 -91q11 -22 33 -41q-26 -24 -45 -29q1 47 -3 60q-11 33 -39 29q-23 -10 -30 -45l-3 -58q0 2 10 22q6 17 16 24q11 8 19 -1t8 -23q0 -23 -29 -60q84 18 125 65q17 -14 49 -22z
M200 839l-18 -6q2 -17 -6 -54q-5 -19 -16 -11q-13 5 -19 17q0 1 -9 24l-14 -5q0 -31 -13 -64q-9 -18 -21 -18q-5 0 -8 1q-11 7 -18 56l-14 -9q-8 -57 0 -77q9 -29 47 -29q5 2 9 4t8 6l6.5 6.5t6 8l5 8l5 8.5t4.5 8l8 -4q32 -8 51.5 10.5t19.5 50.5q0 24 -14 69zM171 956
q-23 21 -23 30q0 5 1 8q11 5 20 -15q4 -8 2 -23z" />
    <glyph glyph-name="shaddakasratanarabic" unicode="&#x64d;&#x651;" arabic-form="isolated" 
d="M196 1000l-19 -7q1 -12 -7 -53q-4 -16 -15 -12q-12 6 -18 18q-2 2 -12 25l-13 -6q0 -29 -14 -63q-8 -20 -19 -20q-3 0 -8 3q-11 5 -14 24q0 5 -1.5 15t-2.5 16l-15 -9q-8 -59 0 -78q9 -27 48 -27q20 5 44 49l8 -5q31 -8 50.5 11t19.5 50q0 25 -12 69zM203 848l-122 -66
q-26 -13 -32 -19q-11 -10 -16 -35l142 69q28 10 28 51zM207 787l-139 -71q-32 -6 -36 -52q105 46 139 63q36 19 36 60z" />
    <glyph glyph-name="shaddafathaarabic" unicode="&#x64e;&#x651;" arabic-form="isolated" 
d="M208 917l-139 -73q-31 -4 -37 -50q114 49 140 62q36 18 36 61zM200 838l-18 -6q2 -16 -6 -54q-5 -19 -16 -11q-13 5 -19 17q0 2 -9 24l-14 -5q0 -31 -13 -64q-9 -18 -21 -18q-5 0 -8 1q-11 7 -18 56l-14 -9q-8 -57 0 -77q9 -29 47 -29q5 2 9 4t8 6l6.5 6.5t6 8l5 8l5 8.5
t4.5 8l8 -4q32 -8 51.5 10.5t19.5 50.5q0 24 -14 69z" />
    <glyph glyph-name="shaddadammaarabicX" unicode="&#x64f;&#x651;" arabic-form="isolated" 
d="M221 861v42q-12 5 -12 13q0 3 10 24q7 16 -1 32q-8 23 -35 23q-26 0 -39 -16q-26 -17 -26 -44q6 -17 33 -36q-35 -40 -114 -83q14 -2 21 -2q34 0 65 20q17 11 59 52zM209 840l-18 -7q1 -15 -8 -54q-3 -16 -14 -11q-13 4 -19 18q-1 0 -11 25l-14 -6q0 -31 -13 -63
q-8 -20 -20 -20q-2 0 -7 3q-11 5 -15 24q-2 20 -4 31l-14 -9q-9 -57 0 -78q8 -29 48 -29q6 2 11 6t10.5 10t8 10l8 13t6.5 11l7 -4q32 -8 51 10.5t19 50.5q0 25 -12 69zM181 952q3 -7 -3 -23q-22 10 -27 22q0 9 10 15q14 2 20 -14z" />
    <glyph glyph-name="shaddakasraarabic" unicode="&#x650;&#x651;" arabic-form="isolated" 
d="M200 929l-18 -6q2 -17 -6 -54q-5 -17 -16 -12t-14.5 11t-13.5 31l-14 -5q0 -32 -13 -62q-9 -20 -21 -20q-2 0 -8 2q-11 6 -18 55l-14 -8q-7 -58 0 -79q9 -28 47 -28q8 3 15.5 9.5t11 11t10 15.5t7.5 13l8 -5q33 -6 52 12.5t19 50.5q0 23 -14 68zM228 787l-141 -71
q-31 -6 -35 -52q105 46 139 63q37 19 37 60z" />
    <glyph glyph-name="allahisolated" unicode="&#xfedf;&#xfee0;&#xfeea;" horiz-adv-x="1228" arabic-form="isolated" 
d="M1191 177v466l-94 -28v-429q0 -102 -99 -102h-84q-100 0 -100 97v464l-93 -30v-429q0 -102 -100 -102q-38 0 -56 -2h-24q-98 0 -98 102v267h-203q-191 0 -191 -222q0 -229 191 -229q94 0 147 60q53 -60 149 -60h45h45q92 0 143 54q51 -54 139 -54h96q84 0 136 50
q51 51 51 127zM348 374v-145q0 -73 -20 -107q-22 -40 -82 -40t-82 40q-20 34 -20 107q0 74 20 106q22 39 82 39h102zM816 839l-19 -6q1 -13 -7 -54q-5 -17 -15 -11q-12 4 -18 17q-3 3 -11 25l-14 -5q0 -32 -13 -64q-7 -19 -20 -19q-5 0 -8 1q-16 9 -18 56l-15 -9
q-8 -56 0 -77q9 -29 48 -29q20 9 45 50l6 -5q32 -8 51.5 11t19.5 50q0 26 -12 69z" />
    <glyph glyph-name="lamalefmaddaaboveisolatedarabi" unicode="&#xfedf;&#xfe82;" horiz-adv-x="557" arabic-form="isolated" 
d="M520 177v475l-94 -28v-440q0 -100 -99 -100h-38v520l-95 -28v-492h-101l-44 -84h284q84 0 136 50q51 49 51 127zM378 703l-44 32q-29 -26 -52 -26q-16 0 -51 15q-33 16 -63 16q-40 0 -96 -42l44 -31q28 26 59 26q15 0 47 -16q33 -15 60 -15q40 0 96 41z" />
    <glyph glyph-name="lamalefmaddaabovefinalarabic" unicode="&#xfee0;&#xfe82;" horiz-adv-x="668" arabic-form="final" 
d="M688 0v84h-68q-100 0 -100 97v466q-76 -19 -94 -23v-440q0 -100 -99 -100h-38v520l-95 -28v-492h-101l-44 -84h196h88q91 0 142 53q50 -53 139 -53h74zM378 703l-44 32q-29 -26 -52 -26q-16 0 -51 15q-33 16 -63 16q-40 0 -96 -42l44 -31q28 26 59 26q15 0 47 -16
q33 -15 60 -15q40 0 96 41z" />
    <glyph glyph-name="lamalefhamzaaboveisolatedarabi" unicode="&#xfedf;&#xfe84;" horiz-adv-x="557" arabic-form="isolated" 
d="M520 177v475l-94 -28v-440q0 -100 -99 -100h-38v520l-95 -28v-492h-101l-44 -84h284q84 0 136 50q51 49 51 127zM302 664v34h-79v20q0 35 24 35q17 0 27 -15l22 28q-21 21 -46 21q-64 0 -64 -69v-20h-28l-21 -34h165z" />
    <glyph glyph-name="lamalefhamzaabovefinalarabicX" unicode="&#xfee0;&#xfe84;" horiz-adv-x="668" arabic-form="final" 
d="M688 0v84h-68q-100 0 -100 97v466q-76 -19 -94 -23v-440q0 -100 -99 -100h-38v520l-95 -28v-492h-101l-44 -84h196h88q91 0 142 53q50 -53 139 -53h74zM302 664v34h-79v20q0 35 24 35q17 0 27 -15l22 28q-21 21 -46 21q-64 0 -64 -69v-20h-28l-21 -34h165z" />
    <glyph glyph-name="lamalefhamzabelowisolatedarabi" unicode="&#xfedf;&#xfe88;" horiz-adv-x="557" arabic-form="isolated" 
d="M520 177v475l-94 -28v-440q0 -100 -99 -100h-38v520l-95 -28v-492h-101l-44 -84h284q84 0 136 50q51 49 51 127zM290 -195v35h-79v19q0 35 24 35q17 0 27 -15l22 28q-21 21 -46 21q-63 0 -63 -69v-19h-29l-21 -35h165z" />
    <glyph glyph-name="lamalefhamzabelowfinalarabicX" unicode="&#xfee0;&#xfe88;" horiz-adv-x="668" arabic-form="final" 
d="M688 0v84h-68q-100 0 -100 97v466q-76 -19 -94 -23v-440q0 -100 -99 -100h-38v520l-95 -28v-492h-101l-44 -84h196h88q91 0 142 53q50 -53 139 -53h74zM290 -195v35h-79v19q0 35 24 35q17 0 27 -15l22 28q-21 21 -46 21q-63 0 -63 -69v-19h-29l-21 -35h165z" />
    <glyph glyph-name="lamalefisolatedarabic" unicode="&#xfedf;&#xfe8e;" horiz-adv-x="557" arabic-form="isolated" 
d="M520 177v475l-94 -28v-440q0 -100 -99 -100h-38v520l-95 -28v-492h-101l-44 -84h284q84 0 136 50q51 49 51 127z" />
    <glyph glyph-name="lamaleffinalarabic" unicode="&#xfee0;&#xfe8e;" horiz-adv-x="668" arabic-form="final" 
d="M688 0v84h-68q-100 0 -100 97v466q-76 -19 -94 -23v-440q0 -100 -99 -100h-38v520l-95 -28v-492h-101l-44 -84h196h88q91 0 142 53q50 -53 139 -53h74z" />
    <glyph glyph-name="hamzaarabic" unicode="&#x621;" horiz-adv-x="564" arabic-form="isolated" 
d="M509 0v85h-239v42q0 43 23 70.5t60 27.5q44 0 76 -41l64 63q-59 63 -130 63q-85 0 -135 -60q-47 -55 -47 -138v-27h-69l-72 -85h469z" />
    <glyph glyph-name="alefarabic" unicode="&#x627;" horiz-adv-x="181" arabic-form="isolated" 
d="M144 0v645l-95 -30v-615h95z" />
    <glyph glyph-name="beharabic" unicode="&#x628;" horiz-adv-x="809" arabic-form="isolated" 
d="M772 172v279l-93 -25v-244q0 -98 -100 -98h-337q-99 0 -99 98v187l-94 -96v-101q0 -77 49.5 -124.5t130.5 -47.5h355q87 0 137.5 46.5t50.5 125.5zM476 -141q0 20 -15.5 35.5t-36.5 15.5t-36 -15.5t-15 -35.5q0 -21 15 -36.5t36 -15.5t36.5 15.5t15.5 36.5z" />
    <glyph glyph-name="tehmarbutaarabic" unicode="&#x629;" horiz-adv-x="492" arabic-form="isolated" 
d="M370 592q0 21 -15.5 36t-35.5 15q-21 0 -36.5 -15t-15.5 -36t15.5 -36.5t36.5 -15.5q20 0 35.5 15.5t15.5 36.5zM236 592q0 21 -15.5 36t-37.5 15q-21 0 -36 -15t-15 -36t15 -36.5t36 -15.5q22 0 37.5 15.5t15.5 36.5zM455 229q0 97 -42 155q-53 72 -161 72t-160 -72
q-43 -58 -43 -155q0 -98 43 -156q52 -73 160 -73q109 0 161 73q42 59 42 156zM362 229q0 -149 -110 -149q-108 0 -108 149q0 147 108 147q110 0 110 -147z" />
    <glyph glyph-name="teharabic" unicode="&#x62a;" horiz-adv-x="809" arabic-form="isolated" 
d="M530 439q0 21 -15.5 36.5t-36.5 15.5q-20 0 -35.5 -15.5t-15.5 -36.5t15.5 -36.5t35.5 -15.5q21 0 36.5 15t15.5 37zM396 439q0 21 -15.5 36.5t-36.5 15.5t-36 -15.5t-15 -36.5q0 -22 15 -37t36 -15t36.5 15t15.5 37zM772 172v279l-93 -25v-244q0 -98 -100 -98h-337
q-99 0 -99 98v187l-94 -96v-101q0 -77 49.5 -124.5t130.5 -47.5h355q87 0 137.5 46.5t50.5 125.5z" />
    <glyph glyph-name="theharabic" unicode="&#x62b;" horiz-adv-x="809" arabic-form="isolated" 
d="M464 555q0 21 -15.5 36t-36.5 15t-36.5 -15t-15.5 -36t15.5 -36.5t36.5 -15.5t36.5 15.5t15.5 36.5zM530 439q0 21 -15.5 36.5t-36.5 15.5q-20 0 -35.5 -15.5t-15.5 -36.5t15.5 -36.5t35.5 -15.5q21 0 36.5 15t15.5 37zM396 439q0 21 -15.5 36.5t-36.5 15.5t-36 -15.5
t-15 -36.5q0 -22 15 -37t36 -15t36.5 15t15.5 37zM772 172v279l-93 -25v-244q0 -98 -100 -98h-337q-99 0 -99 98v187l-94 -96v-101q0 -77 49.5 -124.5t130.5 -47.5h355q87 0 137.5 46.5t50.5 125.5z" />
    <glyph glyph-name="jeemarabic" unicode="&#x62c;" horiz-adv-x="569" arabic-form="isolated" 
d="M533 212q-14 116 -77 184q-67 70 -172 70q-62 0 -113 -23q-45 -22 -102 -73l61 -63q46 42 78 57q31 16 76 16q38 0 78 -26q34 -24 54 -59h-110q-116 0 -186 -70q-71 -71 -71 -177q0 -104 73 -171q73 -69 184 -69q88 0 155 38v101q-41 -38 -80 -48q-27 -8 -75 -8
q-70 0 -116 44q-44 44 -44 113q0 74 43.5 119t116.5 45h227zM367 53q0 21 -15.5 36.5t-36.5 15.5t-36.5 -15.5t-15.5 -36.5q0 -22 15.5 -37.5t36.5 -15.5t36.5 15.5t15.5 37.5z" />
    <glyph glyph-name="haharabic" unicode="&#x62d;" horiz-adv-x="569" arabic-form="isolated" 
d="M533 212q-14 116 -77 184q-67 70 -172 70q-62 0 -113 -23q-45 -22 -102 -73l61 -63q46 42 78 57q31 16 76 16q38 0 78 -26q34 -24 54 -59h-110q-116 0 -186 -70q-71 -71 -71 -177q0 -104 73 -171q73 -69 184 -69q88 0 155 38v101q-41 -38 -80 -48q-27 -8 -75 -8
q-70 0 -116 44q-44 44 -44 113q0 74 43.5 119t116.5 45h227z" />
    <glyph glyph-name="khaharabic" unicode="&#x62e;" horiz-adv-x="569" arabic-form="isolated" 
d="M337 592q0 21 -15.5 36t-36.5 15q-22 0 -37.5 -15t-15.5 -36t15.5 -36.5t37.5 -15.5q21 0 36.5 15.5t15.5 36.5zM533 212q-14 116 -77 184q-67 70 -172 70q-62 0 -113 -23q-45 -22 -102 -73l61 -63q46 42 78 57q31 16 76 16q38 0 78 -26q34 -24 54 -59h-110
q-116 0 -186 -70q-71 -71 -71 -177q0 -104 73 -171q73 -69 184 -69q88 0 155 38v101q-41 -38 -80 -48q-27 -8 -75 -8q-70 0 -116 44q-44 44 -44 113q0 74 43.5 119t116.5 45h227z" />
    <glyph glyph-name="dalarabic" unicode="&#x62f;" horiz-adv-x="483" arabic-form="isolated" 
d="M446 0v279q0 78 -55 124q-56 47 -143 47q-67 0 -135 -59v-108q49 87 135 87q104 0 104 -98v-190h-246l-57 -82h397z" />
    <glyph glyph-name="thalarabic" unicode="&#x630;" horiz-adv-x="483" arabic-form="isolated" 
d="M312 592q0 22 -15 37.5t-36 15.5t-36.5 -15.5t-15.5 -37.5q0 -21 15.5 -36.5t36.5 -15.5t36 15.5t15 36.5zM446 0v279q0 78 -55 124q-56 47 -143 47q-67 0 -135 -59v-108q49 87 135 87q104 0 104 -98v-190h-246l-57 -82h397z" />
    <glyph glyph-name="reharabic" unicode="&#x631;" horiz-adv-x="389" arabic-form="isolated" 
d="M352 30v421l-95 -28v-396q0 -63 -34.5 -99.5t-95.5 -36.5q-84 0 -152 38l45 -94q43 -27 107 -27q104 0 164 61q61 61 61 161z" />
    <glyph glyph-name="zainarabic" unicode="&#x632;" horiz-adv-x="389" arabic-form="isolated" 
d="M349 592q0 22 -15 37.5t-36 15.5t-36.5 -15.5t-15.5 -37.5q0 -21 15.5 -36.5t36.5 -15.5t36 15.5t15 36.5zM352 30v421l-95 -28v-396q0 -63 -34.5 -99.5t-95.5 -36.5q-84 0 -152 38l45 -94q43 -27 107 -27q104 0 164 61q61 61 61 161z" />
    <glyph glyph-name="seenarabic" unicode="&#x633;" horiz-adv-x="1233" arabic-form="isolated" 
d="M1187 172v281l-95 -29v-242q0 -98 -98 -98h-102v324l-95 -28v-298h-193v275l-95 -29v-298q0 -136 -172 -136q-105 0 -149.5 50t-44.5 167v87l-94 -28q-3 -172 43 -251q64 -111 244 -111q255 0 267 192h396q86 0 137 47t51 125z" />
    <glyph glyph-name="sheenarabic" unicode="&#x634;" horiz-adv-x="1233" arabic-form="isolated" 
d="M1187 172v281l-95 -29v-242q0 -98 -98 -98h-102v324l-95 -28v-298h-193v275l-95 -29v-298q0 -136 -172 -136q-105 0 -149.5 50t-44.5 167v87l-94 -28q-3 -172 43 -251q64 -111 244 -111q255 0 267 192h396q86 0 137 47t51 125zM824 592q0 22 -15.5 37.5t-36.5 15.5
q-22 0 -36.5 -15.5t-14.5 -37.5q0 -21 15 -36.5t36 -15.5t36.5 15.5t15.5 36.5zM958 592q0 22 -15.5 37.5t-36.5 15.5t-36 -15.5t-15 -37.5q0 -21 15 -36.5t36 -15.5t36.5 15.5t15.5 36.5zM892 708q0 21 -15.5 36.5t-36.5 15.5t-36.5 -15.5t-15.5 -36.5q0 -20 15.5 -35.5
t36.5 -15.5t36.5 15.5t15.5 35.5z" />
    <glyph glyph-name="sadarabic" unicode="&#x635;" horiz-adv-x="1249" arabic-form="isolated" 
d="M1193 0l6 127q0 130 -46 204q-74 120 -220 115q-167 -5 -261 -148q-49 -73 -68 -156v215l-95 -29v-298q0 -136 -172 -136q-105 0 -149.5 50t-44.5 167v87l-94 -28q-3 -172 43 -251q64 -111 244 -111q255 0 267 192h590zM1102 84h-446q6 85 85 173q89 102 194 102
q87 0 133 -72q37 -61 37 -154q0 -25 -3 -49z" />
    <glyph glyph-name="dadarabic" unicode="&#x636;" horiz-adv-x="1249" arabic-form="isolated" 
d="M1193 0l6 127q0 130 -46 204q-74 120 -220 115q-167 -5 -261 -148q-49 -73 -68 -156v215l-95 -29v-298q0 -136 -172 -136q-105 0 -149.5 50t-44.5 167v87l-94 -28q-3 -172 43 -251q64 -111 244 -111q255 0 267 192h590zM1102 84h-446q6 85 85 173q89 102 194 102
q87 0 133 -72q37 -61 37 -154q0 -25 -3 -49zM995 593q0 21 -16 36.5t-38 15.5q-23 0 -39 -15.5t-16 -36.5q0 -22 16 -37t39 -15q22 0 38 15t16 37z" />
    <glyph glyph-name="taharabic" unicode="&#x637;" horiz-adv-x="833" arabic-form="isolated" 
d="M792 0q0 7 2 69t2 69q0 119 -44 193q-74 119 -221 115q-174 -5 -271 -161v342l-95 -29v-514h-75l-41 -84h743zM702 84h-446q23 97 93 179q89 101 189 97q83 -5 127 -67q40 -70 40 -164q0 -23 -3 -45z" />
    <glyph glyph-name="zaharabic" unicode="&#x638;" horiz-adv-x="833" arabic-form="isolated" 
d="M578 592q0 22 -15.5 37.5t-36.5 15.5q-20 0 -35.5 -15.5t-15.5 -37.5q0 -21 15.5 -36.5t35.5 -15.5q21 0 36.5 15.5t15.5 36.5zM792 0q0 7 2 69t2 69q0 119 -44 193q-74 119 -221 115q-174 -5 -271 -161v342l-95 -29v-514h-75l-41 -84h743zM702 84h-446q23 97 93 179
q89 101 189 97q83 -5 127 -67q40 -70 40 -164q0 -23 -3 -45z" />
    <glyph glyph-name="ainarabic" unicode="&#x639;" horiz-adv-x="546" arabic-form="isolated" 
d="M509 207l-49 83h-177v21q0 68 59 68q41 0 65 -35l63 62q-48 55 -119 55q-77 0 -119 -47q-41 -47 -41 -114v-33q-67 -30 -104.5 -90.5t-37.5 -138.5q0 -103 72 -166q73 -64 185 -64q88 0 156 39l-1 103q-49 -40 -83 -50q-27 -8 -72 -8q-75 0 -117.5 38.5t-42.5 107.5
q0 75 43.5 122t116.5 47h101h102z" />
    <glyph glyph-name="ghainarabic" unicode="&#x63a;" horiz-adv-x="546" arabic-form="isolated" 
d="M400 592q0 21 -15.5 36t-36.5 15t-36.5 -15t-15.5 -36t15.5 -36.5t36.5 -15.5t36.5 15.5t15.5 36.5zM509 207l-49 83h-177v21q0 68 59 68q41 0 65 -35l63 62q-48 55 -119 55q-77 0 -119 -47q-41 -47 -41 -114v-33q-67 -30 -104.5 -90.5t-37.5 -138.5q0 -103 72 -166
q73 -64 185 -64q88 0 156 39l-1 103q-49 -40 -83 -50q-27 -8 -72 -8q-75 0 -117.5 38.5t-42.5 107.5q0 75 43.5 122t116.5 47h101h102z" />
    <glyph glyph-name="feharabic" unicode="&#x641;" horiz-adv-x="808" arabic-form="isolated" 
d="M624 592q0 21 -15.5 36t-37.5 15q-21 0 -36.5 -15t-15.5 -36t15.5 -36.5t36.5 -15.5q22 0 37.5 15.5t15.5 36.5zM771 157v153q0 66 -45 109q-54 51 -155 51q-89 0 -141 -43.5t-52 -116.5q0 -81 30 -117q37 -43 133 -43h135q0 -47 -31 -60q-18 -6 -71 -6h-332
q-99 0 -99 98v187l-94 -96v-101q0 -77 49.5 -124.5t130.5 -47.5h358q90 0 133 31q51 37 51 126zM676 307v-77h-114q-61 0 -76 12q-14 14 -14 65q0 79 99 79q105 0 105 -79z" />
    <glyph glyph-name="qafarabic" unicode="&#x642;" horiz-adv-x="647" arabic-form="isolated" 
d="M533 592q0 21 -15.5 36t-36.5 15t-36.5 -15t-15.5 -36t15.5 -36.5t36.5 -15.5t36.5 15.5t15.5 36.5zM399 592q0 21 -15.5 36t-37.5 15q-21 0 -36.5 -15t-15.5 -36t15.5 -36.5t36.5 -15.5q22 0 37.5 15.5t15.5 36.5zM604 16q0 5 0.5 14.5t1 27t0.5 32.5q4 47 4 86
q0 269 -197 269q-103 0 -153 -72q-41 -59 -41 -155q0 -95 41 -157q50 -72 153 -72q62 0 97 32v-4q2 -71 -57 -101q-41 -21 -115 -19q-110 0 -157 56t-47 197l-85 -31q12 -161 65 -228q66 -83 223 -83q264 0 267 208zM514 218q0 -144 -101 -144t-101 144t101 144t101 -144z
" />
    <glyph glyph-name="kafarabic" unicode="&#x643;" horiz-adv-x="809" arabic-form="isolated" 
d="M563 300v58h-163v29q0 68 58 68q29 0 51 -28l44 43q-41 42 -88 42q-58 0 -92 -38t-34 -96v-20h-49l-48 -58h321zM772 172v473l-93 -28v-435q0 -98 -100 -98h-337q-99 0 -99 98v187l-94 -96v-101q0 -77 49.5 -124.5t130.5 -47.5h355q87 0 137.5 46.5t50.5 125.5z" />
    <glyph glyph-name="lamarabic" unicode="&#x644;" horiz-adv-x="641" arabic-form="isolated" 
d="M605 27l-1 616l-95 -29v-589q0 -72 -47 -104q-39 -24 -124 -24q-107 0 -151 56q-43 55 -43 197l-95 -31q13 -156 70 -228q68 -83 218 -83q268 0 268 219z" />
    <glyph glyph-name="meemarabic" unicode="&#x645;" horiz-adv-x="732" arabic-form="isolated" 
d="M695 229q0 92 -41 151q-50 71 -151 71h-236q-107 0 -159 -41q-59 -48 -59 -159v-444l95 29v415q0 69 32 92q28 21 109 21h54q-29 -50 -29 -135q0 -93 41 -152q50 -71 152 -71q101 0 151 71q41 59 41 152zM601 229q0 -139 -98 -139t-98 139t98 139t98 -139z" />
    <glyph glyph-name="noonarabic" unicode="&#x646;" horiz-adv-x="641" arabic-form="isolated" 
d="M371 311q0 21 -15 36.5t-36 15.5t-36.5 -15.5t-15.5 -36.5t15.5 -36t36.5 -15q22 0 36.5 15t14.5 36zM604 357l-95 -29v-298q0 -136 -172 -136q-105 0 -149.5 50t-44.5 167v87l-94 -28q-3 -172 43 -251q64 -111 244 -111q268 0 268 212v337z" />
    <glyph glyph-name="heharabic" unicode="&#x647;" horiz-adv-x="492" arabic-form="isolated" 
d="M455 229q0 97 -42 155q-53 72 -161 72t-160 -72q-43 -58 -43 -155q0 -98 43 -156q52 -73 160 -73q109 0 161 73q42 59 42 156zM362 229q0 -149 -110 -149q-108 0 -108 149q0 147 108 147q110 0 110 -147z" />
    <glyph glyph-name="wawarabic" unicode="&#x648;" horiz-adv-x="475" arabic-form="isolated" 
d="M434 39q0 15 3 63q1 29 1 73q0 115 -33 177q-46 82 -161 82q-104 0 -154 -71q-41 -59 -41 -153q0 -93 41 -152q50 -72 154 -72q52 0 95 24q-12 -113 -120 -119q-75 -5 -159 35l42 -92q43 -26 117 -26q106 0 162 68q51 59 53 163zM344 210q0 -141 -100 -141
q-101 0 -101 141q0 142 101 142q100 0 100 -142z" />
    <glyph glyph-name="alefmaksuraarabic" unicode="&#x649;" horiz-adv-x="646" arabic-form="isolated" 
d="M609 380q-65 71 -158 71q-87 0 -138 -48t-51 -129v-139h248v-118q0 -64 -56 -96q-44 -26 -115 -26q-104 0 -149 56q-45 55 -45 194l-96 -29q13 -154 69 -222q66 -86 221 -86q111 0 181 44q84 56 84 165v201h-247v49q0 102 99 102q70 0 122 -81z" />
    <glyph glyph-name="yeharabic" unicode="&#x64a;" horiz-adv-x="646" arabic-form="isolated" 
d="M609 380q-65 71 -158 71q-87 0 -138 -48t-51 -129v-139h248v-118q0 -64 -56 -96q-44 -26 -115 -26q-104 0 -149 56q-45 55 -45 194l-96 -29q13 -154 69 -222q66 -86 221 -86q111 0 181 44q84 56 84 165v201h-247v49q0 102 99 102q70 0 122 -81zM464 -323q0 20 -15.5 35.5
t-36.5 15.5t-36.5 -15.5t-15.5 -35.5q0 -21 15.5 -36.5t36.5 -15.5t36.5 15.5t15.5 36.5zM330 -323q0 20 -15.5 35.5t-36.5 15.5q-22 0 -37 -15t-15 -36t15 -36.5t37 -15.5q21 0 36.5 15.5t15.5 36.5z" />
    <glyph glyph-name="fathatanarabic" unicode="&#xfe70;" arabic-form="isolated" 
d="M223 768l-138 -22q-27 -4 -36 -9q-15 -6 -27 -27l156 20q31 0 45 38zM210 721l-155 -23q-30 4 -51 -36q106 7 152 13q40 4 54 46z" />
    <glyph glyph-name="dammatanarabic" unicode="&#xfe72;" arabic-form="isolated" 
d="M258 707l-5 44q-17 11 -17 26q0 4 7.5 25.5t7.5 29.5q0 11 -4 19q-10 25 -48 25q-53 -26 -53 -91q10 -21 34 -40q-27 -26 -46 -30q1 45 -2 61q-9 33 -40 29q-21 -10 -29 -45q-1 -10 -2.5 -29.5t-1.5 -28.5q0 2 10 22q6 16 16 23q11 9 19 0t8 -23q0 -26 -28 -60
q83 18 124 65q17 -14 50 -22zM210 796q-23 21 -23 32q0 4 1 7q12 5 20 -15q5 -11 2 -24z" />
    <glyph glyph-name="kasratanarabic" unicode="&#xfe74;" arabic-form="isolated" 
d="M171 -204l-138 -21q-28 -5 -35 -9q-15 -7 -28 -28l157 20q31 2 44 38zM159 -250l-155 -23q-31 4 -52 -37q118 10 153 15q41 5 54 45z" />
    <glyph glyph-name="fathaarabic" unicode="&#xfe76;" arabic-form="isolated" 
d="M197 786l-139 -73q-31 -6 -36 -50q99 42 139 61q36 20 36 62z" />
    <glyph glyph-name="dammaarabic" unicode="&#xfe78;" arabic-form="isolated" 
d="M198 710v42q-12 5 -12 13l8 24q8 17 0 32q-8 23 -34 23t-41 -16q-24 -18 -24 -46q6 -17 33 -35q-37 -40 -116 -83q14 -2 22 -2q36 0 66 21q11 6 59 51zM156 800q5 -8 -1 -24q-23 14 -27 24q0 9 10 13q12 4 18 -13z" />
    <glyph glyph-name="kasraarabic" unicode="&#xfe7a;" arabic-form="isolated" 
d="M161 -204l-139 -73q-31 -6 -36 -50q120 51 139 61q36 20 36 62z" />
    <glyph glyph-name="shaddaarabic" unicode="&#xfe7c;" arabic-form="isolated" 
d="M234 839l-19 -6q1 -13 -7 -54q-5 -17 -15 -11q-12 4 -18 17q-3 3 -11 25l-14 -5q0 -32 -13 -64q-7 -19 -20 -19q-5 0 -8 1q-16 9 -18 56l-15 -9q-8 -56 0 -77q9 -29 48 -29q20 9 45 50l6 -5q32 -8 51.5 11t19.5 50q0 26 -12 69z" />
    <glyph glyph-name="sukunarabic" unicode="&#xfe7e;" arabic-form="isolated" 
d="M157 690q19 16 19 43q0 33 -26 62t-57 29q-73 -31 -73 -96q0 -10 3 -24q27 -41 70 -41q35 0 64 27zM130 717q-16 -9 -29 -9q-22 0 -26 25q-5 29 16 45q31 -10 39 -61z" />
    <glyph glyph-name="alefwaslaisolated" unicode="&#x671;" horiz-adv-x="181" arabic-form="isolated" 
d="M144 0v645l-95 -30v-615h95zM208 745q-26 44 -68 44q-54 -35 -74 -55q-30 -7 -49 -6q-22 22 -28 20q-11 -12 -14 -18q-16 -26 -17 -28q17 -6 27 1l38 -21h136q49 0 49 63zM149 750q33 -10 33 -17q0 -10 -80 -5q31 26 47 22z" />
    <glyph glyph-name="peharabic" unicode="&#x67e;" horiz-adv-x="809" arabic-form="isolated" 
d="M772 172v279l-93 -25v-244q0 -98 -100 -98h-337q-99 0 -99 98v187l-94 -96v-101q0 -77 49.5 -124.5t130.5 -47.5h355q87 0 137.5 46.5t50.5 125.5zM530 -140q0 21 -15.5 36t-36.5 15q-20 0 -35.5 -15t-15.5 -36t15.5 -36.5t35.5 -15.5q21 0 36.5 15.5t15.5 36.5z
M396 -140q0 21 -15.5 36t-36.5 15t-36 -15t-15 -36t15 -36.5t36 -15.5t36.5 15.5t15.5 36.5zM464 -257q0 21 -15.5 36.5t-36.5 15.5t-36.5 -15.5t-15.5 -36.5t15.5 -36.5t36.5 -15.5t36.5 15.5t15.5 36.5z" />
    <glyph glyph-name="tcheharabic" unicode="&#x686;" horiz-adv-x="569" arabic-form="isolated" 
d="M440 93q0 21 -15 36.5t-36 15.5q-22 0 -37.5 -15.5t-15.5 -36.5q0 -22 15.5 -36.5t37.5 -14.5q21 0 36 14.5t15 36.5zM533 212q-11 113 -76.5 176t-172.5 63q-62 0 -113 -23q-45 -22 -102 -73l66 -62q45 40 74 56q31 16 75 16q92 0 132 -70h-110q-116 0 -186 -70
q-71 -71 -71 -177q0 -104 73 -171q73 -69 184 -69q88 0 155 38v101q-41 -38 -80 -48q-27 -8 -75 -8q-70 0 -116 44q-44 44 -44 113q0 74 43.5 119t116.5 45h227zM305 93q0 21 -15.5 36.5t-36.5 15.5t-36 -15.5t-15 -36.5q0 -22 15 -36.5t36 -14.5t36.5 15t15.5 36zM373 -23
q0 21 -15.5 36t-36.5 15t-36.5 -15t-15.5 -36t15.5 -36.5t36.5 -15.5t36.5 15.5t15.5 36.5z" />
    <glyph glyph-name="jeharabic" unicode="&#x698;" horiz-adv-x="389" arabic-form="isolated" 
d="M352 30v421l-95 -28v-396q0 -63 -34.5 -99.5t-95.5 -36.5q-84 0 -152 38l45 -94q43 -27 107 -27q104 0 164 61q61 61 61 161zM280 708q0 21 -15.5 36.5t-36.5 15.5t-36 -15.5t-15 -36.5q0 -22 15 -36.5t36 -14.5t36.5 15t15.5 36zM348 592q0 21 -15.5 36t-36.5 15
q-22 0 -37.5 -15t-15.5 -36t15.5 -36.5t37.5 -15.5q21 0 36.5 15.5t15.5 36.5zM212 592q0 21 -15 36t-36 15t-36.5 -15t-15.5 -36t15.5 -36.5t36.5 -15.5t36 15.5t15 36.5z" />
    <glyph glyph-name="veharabic" unicode="&#x6a4;" horiz-adv-x="808" arabic-form="isolated" 
d="M627 708q0 21 -15 36.5t-36 15.5t-36.5 -15.5t-15.5 -36.5t15.5 -36t36.5 -15t36 14.5t15 36.5zM694 592q0 21 -15.5 36t-36.5 15t-36.5 -15t-15.5 -36t15.5 -36.5t36.5 -15.5t36.5 15.5t15.5 36.5zM560 592q0 21 -15.5 36t-36.5 15q-22 0 -37 -15t-15 -36t15 -36.5
t37 -15.5q21 0 36.5 15.5t15.5 36.5zM771 157v153q0 66 -45 109q-54 51 -155 51q-89 0 -141 -43.5t-52 -116.5q0 -81 30 -117q37 -43 133 -43h135q0 -47 -31 -60q-18 -6 -71 -6h-332q-99 0 -99 98v187l-94 -96v-101q0 -77 49.5 -124.5t130.5 -47.5h358q90 0 133 31
q51 37 51 126zM676 307v-77h-114q-61 0 -76 12q-14 14 -14 65q0 79 99 79q105 0 105 -79z" />
    <glyph glyph-name="alefwaslafinal" unicode="&#x671;" horiz-adv-x="274" arabic-form="final" 
d="M287 0v84h-94q-49 0 -49 48v513l-95 -30v-486q0 -59 34.5 -94t97.5 -35h106zM208 745q-26 44 -68 44q-54 -35 -74 -55q-30 -7 -49 -6q-22 22 -28 20q-11 -12 -14 -18q-16 -26 -17 -28q17 -6 27 1l38 -21h136q49 0 49 63zM149 750q33 -10 33 -17q0 -10 -80 -5q31 26 47 22
z" />
    <glyph glyph-name="pehfinalarabic" unicode="&#x67e;" horiz-adv-x="924" arabic-form="final" 
d="M936 0v84h-41q-123 0 -123 129v238l-93 -25v-244q0 -98 -100 -98h-337q-99 0 -99 98v187l-94 -96v-101q0 -77 49.5 -124.5t130.5 -47.5h355q110 0 160 74q44 -74 145 -74h47zM530 -140q0 21 -15.5 36t-36.5 15q-20 0 -35.5 -15t-15.5 -36t15.5 -36.5t35.5 -15.5
q21 0 36.5 15.5t15.5 36.5zM396 -140q0 21 -15.5 36t-36.5 15t-36 -15t-15 -36t15 -36.5t36 -15.5t36.5 15.5t15.5 36.5zM464 -257q0 21 -15.5 36.5t-36.5 15.5t-36.5 -15.5t-15.5 -36.5t15.5 -36.5t36.5 -15.5t36.5 15.5t15.5 36.5z" />
    <glyph glyph-name="pehinitialarabic" unicode="&#x67e;" horiz-adv-x="290" arabic-form="initial" 
d="M253 177v274l-94 -28v-239q0 -102 -99 -102h-72v-82h77q85 0 137 50q51 50 51 127zM251 -140q0 21 -15.5 36t-36.5 15t-36 -15t-15 -36t15 -36.5t36 -15.5t36.5 15.5t15.5 36.5zM117 -140q0 21 -15.5 36t-36.5 15q-22 0 -36.5 -15t-14.5 -36t15 -36.5t36 -15.5t36.5 15.5
t15.5 36.5zM184 -257q0 22 -15 37t-36 15t-36.5 -15t-15.5 -37q0 -21 15.5 -36.5t36.5 -15.5t36 15.5t15 36.5z" />
    <glyph glyph-name="pehmedialarabic" unicode="&#x67e;" horiz-adv-x="389" arabic-form="medial" 
d="M401 0v82h-54q-99 0 -99 99v270l-94 -28v-239q0 -102 -100 -102h-66v-82h72q91 0 142 53q51 -53 139 -53h60zM320 -140q0 21 -15.5 36t-36.5 15q-22 0 -37.5 -15t-15.5 -36t15.5 -36.5t37.5 -15.5q21 0 36.5 15.5t15.5 36.5zM184 -140q0 21 -15 36t-36 15t-36.5 -15
t-15.5 -36t15.5 -36.5t36.5 -15.5t36 15.5t15 36.5zM252 -257q0 21 -15.5 36.5t-36.5 15.5q-20 0 -35.5 -15.5t-15.5 -36.5t15.5 -36.5t35.5 -15.5q21 0 36.5 15.5t15.5 36.5z" />
    <glyph glyph-name="vehfinalarabic" unicode="&#x6a4;" horiz-adv-x="838" arabic-form="final" 
d="M627 708q0 21 -15 36.5t-36 15.5t-36.5 -15.5t-15.5 -36.5t15.5 -36t36.5 -15t36 14.5t15 36.5zM694 592q0 21 -15.5 36t-36.5 15t-36.5 -15t-15.5 -36t15.5 -36.5t36.5 -15.5t36.5 15.5t15.5 36.5zM560 592q0 21 -15.5 36t-36.5 15q-22 0 -37 -15t-15 -36t15 -36.5
t37 -15.5q21 0 36.5 15.5t15.5 36.5zM850 0v82h-142q61 67 63 142q3 96 -40 155q-51 72 -157 72q-104 0 -155 -72q-43 -59 -40 -155q2 -74 63 -140h-200q-99 0 -99 98v187l-94 -96v-101q0 -77 49.5 -124.5t130.5 -47.5h288q29 0 59 6q28 -6 57 -6h217zM576 367
q49 0 76.5 -33t27.5 -86q0 -49 -26 -93q-29 -48 -78 -64q-50 16 -79 64q-26 44 -26 93q0 52 28 85.5t77 33.5z" />
    <glyph glyph-name="vehinitialarabic" unicode="&#x6a4;" horiz-adv-x="494" arabic-form="initial" 
d="M310 708q0 21 -15.5 36.5t-36.5 15.5t-36 -15.5t-15 -36.5q0 -22 15 -36.5t36 -14.5t36.5 15t15.5 36zM376 592q0 21 -15 36t-36 15t-36.5 -15t-15.5 -36t15.5 -36.5t36.5 -15.5t36 15.5t15 36.5zM242 592q0 21 -15 36t-36 15q-22 0 -37 -15t-15 -36t15 -36.5t37 -15.5
q21 0 36 15.5t15 36.5zM458 157v153q0 65 -47 109q-53 51 -154 51q-90 0 -142 -43.5t-52 -116.5q0 -80 32 -117q37 -43 133 -43h135q0 -46 -32 -60q-17 -6 -70 -6h-273v-84h285q91 0 132 31q53 38 53 126zM363 307v-77h-116q-60 0 -75 12q-15 14 -15 65q0 79 100 79
q106 0 106 -79z" />
    <glyph glyph-name="vehmedialarabic" unicode="&#x6a4;" horiz-adv-x="531" arabic-form="medial" 
d="M321 708q0 21 -15.5 36.5t-36.5 15.5t-36 -15.5t-15 -36.5q0 -22 15 -36.5t36 -14.5t36.5 15t15.5 36zM389 592q0 21 -15.5 36t-36.5 15q-22 0 -37.5 -15t-15.5 -36t15.5 -36.5t37.5 -15.5q21 0 36.5 15.5t15.5 36.5zM253 592q0 21 -15 36t-36 15t-36.5 -15t-15.5 -36
t15.5 -36.5t36.5 -15.5t36 15.5t15 36.5zM544 0v82h-143q61 67 64 142q1 94 -41 155q-51 72 -156 72q-104 0 -156 -72q-42 -60 -39 -155q2 -76 62 -142h-147v-82h221q31 0 59 6q30 -6 59 -6h217zM268 367q50 0 77.5 -33t27.5 -86q0 -49 -26 -93q-29 -48 -79 -64
q-48 16 -79 64q-25 43 -25 93q0 52 28 85.5t76 33.5z" />
    <glyph glyph-name="tchehfinalarabic" unicode="&#x686;" horiz-adv-x="717" arabic-form="final" 
d="M729 0v84h-27q-108 0 -151 94l-66 177q-57 96 -201 96q-62 0 -113 -23q-43 -21 -101 -73l67 -62q43 40 73 56q31 16 74 16q92 0 132 -70h-110q-116 0 -186 -70q-71 -71 -71 -177q0 -104 73 -171q73 -69 184 -69q88 0 155 38v101q-68 -56 -155 -56q-70 0 -116 44
q-44 44 -44 113q0 74 43.5 119t116.5 45h136q45 -212 250 -212h37zM440 93q0 21 -15 36.5t-36 15.5q-22 0 -37.5 -15.5t-15.5 -36.5q0 -22 15.5 -36.5t37.5 -14.5q21 0 36 14.5t15 36.5zM305 93q0 21 -15.5 36.5t-36.5 15.5t-36 -15.5t-15 -36.5q0 -22 15 -36.5t36 -14.5
t36.5 15t15.5 36zM373 -23q0 21 -15.5 36t-36.5 15t-36.5 -15t-15.5 -36t15.5 -36.5t36.5 -15.5t36.5 15.5t15.5 36.5z" />
    <glyph glyph-name="tchehinitialarabic" unicode="&#x686;" horiz-adv-x="557" arabic-form="initial" 
d="M520 0v118q0 146 -39 223q-59 110 -210 110q-120 0 -221 -98l68 -63q71 77 153 77q98 0 131 -84q21 -51 21 -165v-36h-435v-82h532zM387 -140q0 21 -15 36t-36 15t-36.5 -15t-15.5 -36t15.5 -36.5t36.5 -15.5t36 15.5t15 36.5zM253 -140q0 21 -15 36t-36 15t-36.5 -15
t-15.5 -36t15.5 -36.5t36.5 -15.5t36 15.5t15 36.5zM321 -257q0 21 -15.5 36.5t-36.5 15.5t-36 -15.5t-15 -36.5t15 -36.5t36 -15.5t36.5 15.5t15.5 36.5z" />
    <glyph glyph-name="tchehmedialarabic" unicode="&#x686;" horiz-adv-x="646" arabic-form="medial" 
d="M658 0v84h-124v34q0 147 -40 223q-59 110 -210 110q-119 0 -220 -98l68 -63q71 77 152 77q99 0 132 -84q21 -51 21 -165v-36h-449v-82h670zM413 -140q0 21 -15 36t-36 15t-36.5 -15t-15.5 -36t15.5 -36.5t36.5 -15.5t36 15.5t15 36.5zM278 -140q0 21 -15 36t-37 15
q-21 0 -36 -15t-15 -36t15 -36.5t36 -15.5q22 0 37 15.5t15 36.5zM347 -257q0 21 -15.5 36.5t-37.5 15.5q-21 0 -36.5 -15.5t-15.5 -36.5t15.5 -36.5t36.5 -15.5q22 0 37.5 15.5t15.5 36.5z" />
    <glyph glyph-name="jehfinalarabic" unicode="&#x698;" horiz-adv-x="481" arabic-form="final" 
d="M493 0v84h-141v367l-95 -28v-396q0 -63 -34.5 -99.5t-95.5 -36.5q-84 0 -152 38l45 -94q43 -27 107 -27q96 0 155 52t69 140h142zM280 708q0 21 -15.5 36.5t-36.5 15.5t-36 -15.5t-15 -36.5q0 -22 15 -36.5t36 -14.5t36.5 15t15.5 36zM348 592q0 21 -15.5 36t-36.5 15
q-22 0 -37.5 -15t-15.5 -36t15.5 -36.5t37.5 -15.5q21 0 36.5 15.5t15.5 36.5zM212 592q0 21 -15 36t-36 15t-36.5 -15t-15.5 -36t15.5 -36.5t36.5 -15.5t36 15.5t15 36.5z" />
    <glyph glyph-name="alefmaksurainitialarabic" unicode="&#x6cc;" horiz-adv-x="290" arabic-form="initial" 
d="M253 177v274l-94 -28v-239q0 -102 -99 -102h-72v-82h77q85 0 137 50q51 50 51 127zM232 -140q0 21 -15 36t-36 15q-22 0 -37.5 -15t-15.5 -36t15.5 -36.5t37.5 -15.5q21 0 36 15.5t15 36.5zM97 -140q0 21 -15.5 36t-35.5 15q-21 0 -36.5 -15t-15.5 -36t15.5 -36.5
t36.5 -15.5q20 0 35.5 15.5t15.5 36.5z" />
    <glyph glyph-name="alefmaksuramedialarabic" unicode="&#x6cc;" horiz-adv-x="389" arabic-form="medial" 
d="M401 0v82h-54q-99 0 -99 99v270l-94 -28v-239q0 -102 -100 -102h-66v-82h72q91 0 142 53q51 -53 139 -53h60zM321 -140q0 21 -15.5 36t-36.5 15t-36 -15t-15 -36t15 -36.5t36 -15.5t36.5 15.5t15.5 36.5zM187 -140q0 21 -15.5 36t-36.5 15q-22 0 -36.5 -15t-14.5 -36
t15 -36.5t36 -15.5t36.5 15.5t15.5 36.5z" />
    <glyph glyph-name="alefwithfathatanfinal" unicode="&#xfd3c;" horiz-adv-x="274" arabic-form="final" 
d="M287 0v84h-94q-49 0 -49 48v513l-95 -30v-486q0 -59 34.5 -94t97.5 -35h106zM223 787l-138 -22q-27 -5 -36 -9q-15 -6 -27 -27l156 20q31 0 45 38zM210 740l-155 -23q-30 5 -51 -36q106 7 152 13q40 4 54 46z" />
    <glyph glyph-name="alefwithfathatanisolated" unicode="&#xfd3d;" horiz-adv-x="181" arabic-form="isolated" 
d="M144 0v645l-95 -30v-615h95zM223 787l-138 -22q-27 -5 -36 -9q-15 -6 -27 -27l156 20q31 0 45 38zM210 740l-155 -23q-30 5 -51 -36q106 7 152 13q40 4 54 46z" />
    <glyph glyph-name="alefmaddaabovefinalarabic" unicode="&#x622;" horiz-adv-x="274" arabic-form="final" 
d="M287 0v84h-94q-49 0 -49 48v513l-95 -30v-486q0 -59 34.5 -94t97.5 -35h106zM266 727l-44 32q-29 -26 -52 -26q-16 0 -51 15q-33 16 -63 16q-40 0 -96 -42l44 -31q28 26 59 26q15 0 47 -16q33 -15 60 -15q40 0 96 41z" />
    <glyph glyph-name="alefhamzaabovefinalarabic" unicode="&#x623;" horiz-adv-x="274" arabic-form="final" 
d="M287 0v84h-94q-49 0 -49 48v513l-95 -30v-486q0 -59 34.5 -94t97.5 -35h106zM176 683v34h-79v20q0 35 24 35q17 0 27 -15l22 28q-21 21 -46 21q-64 0 -64 -69v-20h-28l-21 -34h165z" />
    <glyph glyph-name="wawhamzaabovefinalarabic" unicode="&#x624;" horiz-adv-x="534" arabic-form="final" 
d="M546 0v82h-109q2 100 2 122q0 234 -191 234q-102 0 -155 -74q-44 -62 -44 -160q0 -90 51 -144q54 -58 155 -60h78q-6 -46 -38.5 -77t-78.5 -32q-72 -3 -157 35l42 -92q41 -26 117 -26q88 0 145 58q52 52 65 134h118zM344 204l-1 -122h-88q-111 0 -111 122q0 151 104 151
q62 0 83 -50q13 -30 13 -101zM363 492v52h-145v25q0 61 51 61q26 0 46 -26l39 39q-37 37 -78 37q-52 0 -82 -33.5t-30 -85.5v-17h-45l-42 -52h286z" />
    <glyph glyph-name="alefhamzabelowfinalarabic" unicode="&#x625;" horiz-adv-x="274" arabic-form="final" 
d="M287 0v84h-94q-49 0 -49 48v513l-95 -30v-486q0 -59 34.5 -94t97.5 -35h106zM176 -195v35h-79v19q0 35 24 35q17 0 27 -15l22 28q-21 21 -46 21q-63 0 -63 -69v-19h-29l-21 -35h165z" />
    <glyph glyph-name="yehhamzaabovefinalarabic" unicode="&#x626;" horiz-adv-x="555" arabic-form="final" 
d="M271 355v57h-165v31q0 66 58 66q30 0 51 -28l45 44q-40 42 -89 42q-58 0 -91.5 -38t-33.5 -97v-20h-50l-48 -57h323zM555 0v82h-41q-47 0 -71.5 18t-43.5 66l-44 -90q30 -68 123 -76q-6 -70 -66 -93q-30 -13 -103 -13q-82 -1 -126 47t-44 135q0 102 59 234l-109 -66
q-40 -95 -40 -186q0 -112 60 -176q68 -74 200 -74q113 0 178 46q74 51 68 146z" />
    <glyph glyph-name="yehhamzaaboveinitialarabic" unicode="&#x626;" horiz-adv-x="242" arabic-form="initial" 
d="M251 689q-41 42 -89 42q-58 0 -91.5 -38t-33.5 -96v-20h-30l-48 -58h283v58h-144v29q0 67 57 67q31 0 52 -28zM205 177v274l-94 -28v-239q0 -102 -99 -102h-23v-82h29q84 0 136 50q51 50 51 127z" />
    <glyph glyph-name="yehhamzaabovemedialarabic" unicode="&#x626;" horiz-adv-x="389" arabic-form="medial" 
d="M290 689q-41 42 -88 42q-58 0 -92 -38t-34 -96v-20h-34l-48 -58h293v58h-149v29q0 67 56 67q31 0 52 -28zM401 0v82h-54q-99 0 -99 99v270l-94 -28v-239q0 -102 -100 -102h-66v-82h72q91 0 142 53q51 -53 139 -53h60z" />
    <glyph glyph-name="aleffinalarabic" unicode="&#x627;" horiz-adv-x="274" arabic-form="final" 
d="M287 0v84h-94q-49 0 -49 48v513l-95 -30v-486q0 -59 34.5 -94t97.5 -35h106z" />
    <glyph glyph-name="behfinalarabic" unicode="&#x628;" horiz-adv-x="924" arabic-form="final" 
d="M936 0v84h-41q-123 0 -123 129v238l-93 -25v-244q0 -98 -100 -98h-337q-99 0 -99 98v187l-94 -96v-101q0 -77 49.5 -124.5t130.5 -47.5h355q110 0 160 74q44 -74 145 -74h47zM476 -141q0 20 -15.5 35.5t-36.5 15.5t-36 -15.5t-15 -35.5q0 -21 15 -36.5t36 -15.5
t36.5 15.5t15.5 36.5z" />
    <glyph glyph-name="behinitialarabic" unicode="&#x628;" horiz-adv-x="290" arabic-form="initial" 
d="M253 177v274l-94 -28v-239q0 -102 -99 -102h-72v-82h77q85 0 137 50q51 50 51 127zM193 -140q0 21 -15.5 36t-36.5 15q-20 0 -35.5 -15t-15.5 -36t15.5 -36.5t35.5 -15.5q21 0 36.5 15.5t15.5 36.5z" />
    <glyph glyph-name="behmedialarabic" unicode="&#x628;" horiz-adv-x="389" arabic-form="medial" 
d="M401 0v82h-54q-99 0 -99 99v270l-94 -28v-239q0 -102 -100 -102h-66v-82h72q91 0 142 53q51 -53 139 -53h60zM258 -141q0 20 -15 35.5t-36 15.5t-36.5 -15.5t-15.5 -35.5q0 -21 15.5 -36.5t36.5 -15.5t36 15.5t15 36.5z" />
    <glyph glyph-name="tehmarbutafinalarabic" unicode="&#x629;" horiz-adv-x="589" arabic-form="final" 
d="M395 592q0 21 -15.5 36t-36.5 15t-36 -15t-15 -36t15 -36.5t36 -15.5t36.5 15.5t15.5 36.5zM261 592q0 21 -15.5 36t-37.5 15q-21 0 -36.5 -15t-15.5 -36t15.5 -36.5t36.5 -15.5q22 0 37.5 15.5t15.5 36.5zM601 0v82h-60q-98 0 -98 102v267h-203q-191 0 -191 -222
q0 -229 191 -229q113 0 147 70q31 -70 149 -70h65zM348 374v-145q0 -73 -20 -107q-22 -40 -82 -40t-82 40q-20 34 -20 107q0 74 20 106q22 39 82 39h102z" />
    <glyph glyph-name="tehfinalarabic" unicode="&#x62a;" horiz-adv-x="924" arabic-form="final" 
d="M530 439q0 21 -15.5 36.5t-36.5 15.5q-20 0 -35.5 -15.5t-15.5 -36.5t15.5 -36.5t35.5 -15.5q21 0 36.5 15t15.5 37zM396 439q0 21 -15.5 36.5t-36.5 15.5t-36 -15.5t-15 -36.5q0 -22 15 -37t36 -15t36.5 15t15.5 37zM936 0v84h-41q-123 0 -123 129v238l-93 -25v-244
q0 -98 -100 -98h-337q-99 0 -99 98v187l-94 -96v-101q0 -77 49.5 -124.5t130.5 -47.5h355q110 0 160 74q44 -74 145 -74h47z" />
    <glyph glyph-name="tehinitialarabic" unicode="&#x62a;" horiz-adv-x="290" arabic-form="initial" 
d="M260 592q0 21 -15 36t-37 15q-21 0 -36.5 -15t-15.5 -36t15.5 -36.5t36.5 -15.5q22 0 37 15.5t15 36.5zM125 592q0 21 -15 36t-36 15t-36.5 -15t-15.5 -36t15.5 -36.5t36.5 -15.5t36 15.5t15 36.5zM253 177v274l-94 -28v-239q0 -102 -99 -102h-72v-82h77q85 0 137 50
q51 50 51 127z" />
    <glyph glyph-name="tehmedialarabic" unicode="&#x62a;" horiz-adv-x="389" arabic-form="medial" 
d="M316 592q0 21 -15.5 36t-36.5 15q-20 0 -35.5 -15t-15.5 -36t15.5 -36.5t35.5 -15.5q21 0 36.5 15.5t15.5 36.5zM182 592q0 21 -15.5 36t-36.5 15q-22 0 -36.5 -15t-14.5 -36t15 -36.5t36 -15.5t36.5 15.5t15.5 36.5zM401 0v82h-54q-99 0 -99 99v270l-94 -28v-239
q0 -102 -100 -102h-66v-82h72q91 0 142 53q51 -53 139 -53h60z" />
    <glyph glyph-name="thehfinalarabic" unicode="&#x62b;" horiz-adv-x="924" arabic-form="final" 
d="M464 555q0 21 -15.5 36t-36.5 15t-36.5 -15t-15.5 -36t15.5 -36.5t36.5 -15.5t36.5 15.5t15.5 36.5zM530 439q0 21 -15.5 36.5t-36.5 15.5q-20 0 -35.5 -15.5t-15.5 -36.5t15.5 -36.5t35.5 -15.5q21 0 36.5 15t15.5 37zM396 439q0 21 -15.5 36.5t-36.5 15.5t-36 -15.5
t-15 -36.5q0 -22 15 -37t36 -15t36.5 15t15.5 37zM936 0v84h-41q-123 0 -123 129v238l-93 -25v-244q0 -98 -100 -98h-337q-99 0 -99 98v187l-94 -96v-101q0 -77 49.5 -124.5t130.5 -47.5h355q110 0 160 74q44 -74 145 -74h47z" />
    <glyph glyph-name="thehinitialarabic" unicode="&#x62b;" horiz-adv-x="290" arabic-form="initial" 
d="M205 708q0 21 -15 36.5t-36 15.5t-36.5 -15.5t-15.5 -36.5t15.5 -36t36.5 -15q22 0 36.5 14.5t14.5 36.5zM273 592q0 21 -15.5 36t-36.5 15q-22 0 -36.5 -15t-14.5 -36t15 -36.5t36 -15.5t36.5 15.5t15.5 36.5zM138 592q0 21 -15.5 36t-36.5 15t-36.5 -15t-15.5 -36
t15.5 -36.5t36.5 -15.5t36.5 15.5t15.5 36.5zM253 177v274l-94 -28v-239q0 -102 -99 -102h-72v-82h77q85 0 137 50q51 50 51 127z" />
    <glyph glyph-name="thehmedialarabic" unicode="&#x62b;" horiz-adv-x="389" arabic-form="medial" 
d="M252 708q0 21 -15.5 36.5t-36.5 15.5q-20 0 -35.5 -15.5t-15.5 -36.5t15 -36t36 -15t36.5 15t15.5 36zM319 592q0 21 -15.5 36t-36.5 15t-36.5 -15t-15.5 -36t15.5 -36.5t36.5 -15.5t36.5 15.5t15.5 36.5zM184 592q0 21 -15 36t-36 15q-22 0 -37 -15t-15 -36t15 -36.5
t37 -15.5q21 0 36 15.5t15 36.5zM401 0v82h-54q-99 0 -99 99v270l-94 -28v-239q0 -102 -100 -102h-66v-82h72q91 0 142 53q51 -53 139 -53h60z" />
    <glyph glyph-name="jeemfinalarabic" unicode="&#x62c;" horiz-adv-x="717" arabic-form="final" 
d="M729 0v84h-27q-113 0 -162 100l-74 191q-55 102 -187 105q-103 2 -209 -100l57 -53q77 72 152 72q92 0 137 -104h-110q-111 0 -185 -68q-72 -67 -72 -179q0 -106 75 -173q74 -67 182 -67q88 0 155 38v101q-67 -56 -155 -56q-70 0 -115 44t-45 113q0 73 44 118.5t116 45.5
h136q45 -212 246 -212h41zM363 57q0 20 -15.5 35.5t-36.5 15.5t-36 -15.5t-15 -35.5q0 -21 15 -36.5t36 -15.5t36.5 15.5t15.5 36.5z" />
    <glyph glyph-name="jeeminitialarabic" unicode="&#x62c;" horiz-adv-x="557" arabic-form="initial" 
d="M520 0v118q0 146 -39 223q-59 110 -210 110q-120 0 -221 -98l68 -63q71 77 153 77q98 0 131 -84q21 -51 21 -165v-36h-435v-82h532zM321 -140q0 21 -15.5 36t-36.5 15t-36 -15t-15 -36t15 -36.5t36 -15.5t36.5 15.5t15.5 36.5z" />
    <glyph glyph-name="jeemmedialarabic" unicode="&#x62c;" horiz-adv-x="646" arabic-form="medial" 
d="M658 0v84h-124v34q0 147 -40 223q-59 110 -210 110q-119 0 -220 -98l68 -63q71 77 152 77q99 0 132 -84q21 -51 21 -165v-36h-449v-82h670zM335 -140q0 21 -15.5 36t-36.5 15t-36.5 -15t-15.5 -36t15.5 -36.5t36.5 -15.5t36.5 15.5t15.5 36.5z" />
    <glyph glyph-name="hahfinalarabic" unicode="&#x62d;" horiz-adv-x="717" arabic-form="final" 
d="M729 0v84h-27q-113 0 -162 100l-74 191q-55 102 -187 105q-103 2 -209 -100l57 -53q77 72 152 72q92 0 137 -104h-110q-111 0 -185 -68q-72 -67 -72 -179q0 -106 75 -173q74 -67 182 -67q88 0 155 38v101q-67 -56 -155 -56q-70 0 -115 44t-45 113q0 73 44 118.5t116 45.5
h136q45 -212 246 -212h41z" />
    <glyph glyph-name="hahinitialarabic" unicode="&#x62d;" horiz-adv-x="557" arabic-form="initial" 
d="M520 0v118q0 146 -39 223q-59 110 -210 110q-120 0 -221 -98l68 -63q71 77 153 77q98 0 131 -84q21 -51 21 -165v-36h-435v-82h532z" />
    <glyph glyph-name="hahmedialarabic" unicode="&#x62d;" horiz-adv-x="646" arabic-form="medial" 
d="M658 0v84h-124v34q0 147 -40 223q-59 110 -210 110q-119 0 -220 -98l68 -63q71 77 152 77q99 0 132 -84q21 -51 21 -165v-36h-449v-82h670z" />
    <glyph glyph-name="khahfinalarabic" unicode="&#x62e;" horiz-adv-x="717" arabic-form="final" 
d="M337 621q0 21 -15.5 36.5t-36.5 15.5q-22 0 -37.5 -15.5t-15.5 -36.5t15.5 -36.5t37.5 -15.5q21 0 36.5 15.5t15.5 36.5zM729 0v84h-27q-113 0 -162 100l-74 191q-55 102 -187 105q-103 2 -209 -100l57 -53q77 72 152 72q92 0 137 -104h-110q-111 0 -185 -68
q-72 -67 -72 -179q0 -106 75 -173q74 -67 182 -67q88 0 155 38v101q-67 -56 -155 -56q-70 0 -115 44t-45 113q0 73 44 118.5t116 45.5h136q45 -212 246 -212h41z" />
    <glyph glyph-name="khahinitialarabic" unicode="&#x62e;" horiz-adv-x="557" arabic-form="initial" 
d="M323 592q0 21 -15 36t-36 15q-22 0 -37.5 -15t-15.5 -36t15.5 -36.5t37.5 -15.5q21 0 36 15.5t15 36.5zM520 0v118q0 146 -39 223q-59 110 -210 110q-120 0 -221 -98l68 -63q71 77 153 77q98 0 131 -84q21 -51 21 -165v-36h-435v-82h532z" />
    <glyph glyph-name="khahmedialarabic" unicode="&#x62e;" horiz-adv-x="646" arabic-form="medial" 
d="M337 592q0 21 -15.5 36t-36.5 15q-22 0 -37.5 -15t-15.5 -36t15.5 -36.5t37.5 -15.5q21 0 36.5 15.5t15.5 36.5zM658 0v84h-124v34q0 147 -40 223q-59 110 -210 110q-119 0 -220 -98l68 -63q71 77 152 77q99 0 132 -84q21 -51 21 -165v-36h-449v-82h670z" />
    <glyph glyph-name="dalfinalarabic" unicode="&#x62f;" horiz-adv-x="569" arabic-form="final" 
d="M582 0v84h-136v195q0 78 -55 124q-56 47 -143 47q-67 0 -135 -59v-108q49 87 135 87q104 0 104 -98v-190h-246l-57 -82h533z" />
    <glyph glyph-name="thalfinalarabic" unicode="&#x630;" horiz-adv-x="569" arabic-form="final" 
d="M312 592q0 22 -15 37.5t-36 15.5t-36.5 -15.5t-15.5 -37.5q0 -21 15.5 -36.5t36.5 -15.5t36 15.5t15 36.5zM582 0v84h-136v195q0 78 -55 124q-56 47 -143 47q-67 0 -135 -59v-108q49 87 135 87q104 0 104 -98v-190h-246l-57 -82h533z" />
    <glyph glyph-name="rehfinalarabic" unicode="&#x631;" horiz-adv-x="481" arabic-form="final" 
d="M493 0v84h-141v367l-95 -28v-396q0 -63 -34.5 -99.5t-95.5 -36.5q-84 0 -152 38l45 -94q43 -27 107 -27q96 0 155 52t69 140h142z" />
    <glyph glyph-name="zainfinalarabic" unicode="&#x632;" horiz-adv-x="481" arabic-form="final" 
d="M349 592q0 22 -15 37.5t-36 15.5t-36.5 -15.5t-15.5 -37.5q0 -21 15.5 -36.5t36.5 -15.5t36 15.5t15 36.5zM493 0v84h-141v367l-95 -28v-396q0 -63 -34.5 -99.5t-95.5 -36.5q-84 0 -152 38l45 -94q43 -27 107 -27q96 0 155 52t69 140h142z" />
    <glyph glyph-name="seenfinalarabic" unicode="&#x633;" horiz-adv-x="1291" arabic-form="final" 
d="M1302 0v84h-108v367l-95 -28v-339h-200v323l-95 -28v-295h-200v273l-95 -29v-298q0 -136 -172 -136q-105 0 -149.5 50t-44.5 167v87l-94 -28q-3 -172 43 -251q64 -111 244 -111q255 0 267 192h699z" />
    <glyph glyph-name="seeninitialarabic" unicode="&#x633;" horiz-adv-x="829" arabic-form="initial" 
d="M789 172v281l-95 -29v-242q0 -98 -98 -98h-102v324l-95 -28v-298h-196v282l-95 -27v-253h-118v-84h611q86 0 137 47t51 125z" />
    <glyph glyph-name="seenmedialarabic" unicode="&#x633;" horiz-adv-x="890" arabic-form="medial" 
d="M899 0v84h-108v367l-95 -28v-339h-200v323l-95 -28v-295h-198v280l-95 -27v-253h-118v-84h909z" />
    <glyph glyph-name="sheenfinalarabic" unicode="&#x634;" horiz-adv-x="1291" arabic-form="final" 
d="M1302 0v84h-108v367l-95 -28v-339h-200v323l-95 -28v-295h-200v273l-95 -29v-298q0 -136 -172 -136q-105 0 -149.5 50t-44.5 167v87l-94 -28q-3 -172 43 -251q64 -111 244 -111q255 0 267 192h699zM966 592q0 22 -15.5 37.5t-36.5 15.5q-22 0 -37 -15.5t-15 -37.5
q0 -21 15 -36.5t37 -15.5q21 0 36.5 15.5t15.5 36.5zM831 592q0 22 -15.5 37.5t-36.5 15.5t-36 -15.5t-15 -37.5q0 -21 15 -36.5t36 -15.5t36.5 15.5t15.5 36.5zM899 708q0 21 -15.5 36.5t-36.5 15.5t-36.5 -15.5t-15.5 -36.5q0 -20 15.5 -35.5t36.5 -15.5t36.5 15.5
t15.5 35.5z" />
    <glyph glyph-name="sheeninitialarabic" unicode="&#x634;" horiz-adv-x="829" arabic-form="initial" 
d="M789 172v281l-95 -29v-242q0 -98 -98 -98h-102v324l-95 -28v-298h-196v282l-95 -27v-253h-118v-84h611q86 0 137 47t51 125zM426 592q0 22 -15.5 37.5t-36.5 15.5q-22 0 -36.5 -15.5t-14.5 -37.5q0 -21 15 -36.5t36 -15.5t36.5 15.5t15.5 36.5zM560 592q0 22 -15.5 37.5
t-36.5 15.5t-36 -15.5t-15 -37.5q0 -21 15 -36.5t36 -15.5t36.5 15.5t15.5 36.5zM494 708q0 21 -15.5 36.5t-36.5 15.5t-36.5 -15.5t-15.5 -36.5q0 -20 15.5 -35.5t36.5 -15.5t36.5 15.5t15.5 35.5z" />
    <glyph glyph-name="sheenmedialarabic" unicode="&#x634;" horiz-adv-x="890" arabic-form="medial" 
d="M899 0v84h-108v367l-95 -28v-339h-200v323l-95 -28v-295h-198v280l-95 -27v-253h-118v-84h909zM563 592q0 22 -15.5 37.5t-36.5 15.5q-22 0 -37 -15.5t-15 -37.5q0 -21 15 -36.5t37 -15.5q21 0 36.5 15.5t15.5 36.5zM428 592q0 22 -15.5 37.5t-36.5 15.5t-36 -15.5
t-15 -37.5q0 -21 15 -36.5t36 -15.5t36.5 15.5t15.5 36.5zM496 708q0 21 -15.5 36.5t-36.5 15.5t-36.5 -15.5t-15.5 -36.5q0 -20 15.5 -35.5t36.5 -15.5t36.5 15.5t15.5 35.5z" />
    <glyph glyph-name="sadfinalarabic" unicode="&#x635;" horiz-adv-x="1274" arabic-form="final" 
d="M1283 0v84h-85q6 162 -45 247q-74 120 -220 115q-167 -5 -261 -148q-49 -73 -68 -156v215l-95 -29v-298q0 -136 -172 -136q-105 0 -149.5 50t-44.5 167v87l-94 -28q-3 -172 43 -251q64 -111 244 -111q255 0 267 192h680zM1102 84h-446q6 85 85 173q89 102 194 102
q87 0 133 -72q37 -61 37 -154q0 -25 -3 -49z" />
    <glyph glyph-name="sadinitialarabic" unicode="&#x635;" horiz-adv-x="840" arabic-form="initial" 
d="M790 0l6 127q0 130 -46 204q-74 120 -220 115q-167 -5 -261 -148q-47 -69 -66 -148v214l-95 -27v-253h-118v-84h800zM699 84h-446q6 85 85 173q88 102 194 102q86 0 133 -72q37 -61 37 -154q0 -25 -3 -49z" />
    <glyph glyph-name="sadmedialarabic" unicode="&#x635;" horiz-adv-x="869" arabic-form="medial" 
d="M878 0v84h-85q6 162 -45 247q-74 120 -220 115q-167 -5 -261 -148q-45 -67 -64 -140v206l-95 -27v-253h-118v-84h888zM697 84h-446q6 85 85 173q88 102 194 102q86 0 133 -72q37 -61 37 -154q0 -25 -3 -49z" />
    <glyph glyph-name="dadfinalarabic" unicode="&#x636;" horiz-adv-x="1274" arabic-form="final" 
d="M1283 0v84h-85q6 162 -45 247q-74 120 -220 115q-167 -5 -261 -148q-49 -73 -68 -156v215l-95 -29v-298q0 -136 -172 -136q-105 0 -149.5 50t-44.5 167v87l-94 -28q-3 -172 43 -251q64 -111 244 -111q255 0 267 192h680zM1102 84h-446q6 85 85 173q89 102 194 102
q87 0 133 -72q37 -61 37 -154q0 -25 -3 -49zM995 593q0 21 -16 36.5t-38 15.5q-23 0 -39 -15.5t-16 -36.5q0 -22 16 -37t39 -15q22 0 38 15t16 37z" />
    <glyph glyph-name="dadinitialarabic" unicode="&#x636;" horiz-adv-x="840" arabic-form="initial" 
d="M790 0l6 127q0 130 -46 204q-74 120 -220 115q-167 -5 -261 -148q-47 -69 -66 -148v214l-95 -27v-253h-118v-84h800zM699 84h-446q6 85 85 173q88 102 194 102q86 0 133 -72q37 -61 37 -154q0 -25 -3 -49zM592 593q0 21 -16 36.5t-38 15.5q-23 0 -39 -15.5t-16 -36.5
q0 -22 16 -37t39 -15q22 0 38 15t16 37z" />
    <glyph glyph-name="dadmedialarabic" unicode="&#x636;" horiz-adv-x="869" arabic-form="medial" 
d="M878 0v84h-85q6 162 -45 247q-74 120 -220 115q-167 -5 -261 -148q-45 -67 -64 -140v206l-95 -27v-253h-118v-84h888zM697 84h-446q6 85 85 173q88 102 194 102q86 0 133 -72q37 -61 37 -154q0 -25 -3 -49zM590 593q0 21 -16 36.5t-38 15.5q-23 0 -39 -15.5t-16 -36.5
q0 -22 16 -37t39 -15q22 0 38 15t16 37z" />
    <glyph glyph-name="tahfinalarabic" unicode="&#x637;" horiz-adv-x="882" arabic-form="final" 
d="M894 0v84h-99q7 165 -43 247q-74 119 -221 115q-174 -5 -271 -161v342l-95 -29v-514h-75l-41 -84h845zM702 84h-446q23 97 93 179q89 101 189 97q83 -5 127 -67q40 -70 40 -164q0 -23 -3 -45z" />
    <glyph glyph-name="tahinitialarabic" unicode="&#x637;" horiz-adv-x="775" arabic-form="initial" 
d="M734 0q0 7 2 69t2 69q0 119 -44 193q-74 120 -220 115q-175 -4 -272 -161v342l-95 -29v-514h-123v-84h750zM645 84h-447q23 97 94 179q88 101 188 97q82 -4 128 -67q39 -71 39 -164q0 -15 -2 -45z" />
    <glyph glyph-name="tahmedialarabic" unicode="&#x637;" horiz-adv-x="823" arabic-form="medial" 
d="M835 0v84h-98q6 166 -45 247q-73 119 -218 115q-177 -5 -272 -161v342l-95 -29v-514h-123v-84h851zM643 84h-445q21 97 94 179q86 101 186 97q84 -4 130 -67q39 -71 39 -164q0 -25 -4 -45z" />
    <glyph glyph-name="zahfinalarabic" unicode="&#x638;" horiz-adv-x="882" arabic-form="final" 
d="M578 592q0 22 -15.5 37.5t-36.5 15.5q-20 0 -35.5 -15.5t-15.5 -37.5q0 -21 15.5 -36.5t35.5 -15.5q21 0 36.5 15.5t15.5 36.5zM894 0v84h-99q7 165 -43 247q-74 119 -221 115q-174 -5 -271 -161v342l-95 -29v-514h-75l-41 -84h845zM702 84h-446q23 97 93 179
q89 101 189 97q83 -5 127 -67q40 -70 40 -164q0 -23 -3 -45z" />
    <glyph glyph-name="zahinitialarabic" unicode="&#x638;" horiz-adv-x="775" arabic-form="initial" 
d="M520 592q0 22 -15 37.5t-36 15.5t-36.5 -15.5t-15.5 -37.5q0 -21 15.5 -36.5t36.5 -15.5t36 15.5t15 36.5zM734 0q0 7 2 69t2 69q0 119 -44 193q-74 120 -220 115q-175 -4 -272 -161v342l-95 -29v-514h-123v-84h750zM645 84h-447q23 97 94 179q86 101 188 97
q82 -4 128 -67q39 -71 39 -164q0 -15 -2 -45z" />
    <glyph glyph-name="zahmedialarabic" unicode="&#x638;" horiz-adv-x="823" arabic-form="medial" 
d="M519 592q0 22 -14.5 37.5t-37.5 15.5q-21 0 -36 -15.5t-15 -37.5q0 -21 15 -36.5t36 -15.5q23 0 37.5 15t14.5 37zM835 0v84h-98q6 166 -45 247q-73 119 -218 115q-177 -5 -272 -161v342l-95 -29v-514h-123v-84h851zM643 84h-445q21 97 94 179q86 101 186 97
q84 -4 130 -67q39 -71 39 -164q0 -25 -4 -45z" />
    <glyph glyph-name="ainfinalarabic" unicode="&#x639;" horiz-adv-x="540" arabic-form="final" 
d="M552 0v84h-55q-69 0 -69 73v50h81l-49 83h-177v21q0 68 59 68q41 0 65 -35l63 62q-48 55 -119 55q-77 0 -119 -47q-41 -47 -41 -114v-33q-67 -30 -104.5 -90.5t-37.5 -138.5q0 -103 72 -166q73 -64 185 -64q88 0 156 39l-1 103q-49 -40 -83 -50q-27 -8 -72 -8
q-75 0 -117.5 38.5t-42.5 107.5q0 75 43.5 122t116.5 47h29v-91q0 -116 107 -116h110z" />
    <glyph glyph-name="aininitialarabic" unicode="&#x639;" horiz-adv-x="561" arabic-form="initial" 
d="M524 0l-71 84h-257v187q0 44 26 72t70 28q45 0 81 -43l71 64q-61 59 -141 59q-95 0 -149 -57q-53 -56 -53 -139v-171h-111v-84h534z" />
    <glyph glyph-name="ainmedialarabic" unicode="&#x639;" horiz-adv-x="530" arabic-form="medial" 
d="M542 0v84h-345v187q0 43 27 71.5t69 28.5q46 0 82 -43l70 64q-61 59 -141 59q-95 0 -149 -56q-53 -56 -53 -140v-171h-114v-84h554z" />
    <glyph glyph-name="ghainfinalarabic" unicode="&#x63a;" horiz-adv-x="540" arabic-form="final" 
d="M400 592q0 21 -15.5 36t-36.5 15t-36.5 -15t-15.5 -36t15.5 -36.5t36.5 -15.5t36.5 15.5t15.5 36.5zM552 0v84h-55q-69 0 -69 73v50h81l-49 83h-177v21q0 68 59 68q41 0 65 -35l63 62q-48 55 -119 55q-77 0 -119 -47q-41 -47 -41 -114v-33q-67 -30 -104.5 -90.5
t-37.5 -138.5q0 -103 72 -166q73 -64 185 -64q88 0 156 39l-1 103q-49 -40 -83 -50q-27 -8 -72 -8q-75 0 -117.5 38.5t-42.5 107.5q0 75 43.5 122t116.5 47h29v-91q0 -116 107 -116h110z" />
    <glyph glyph-name="ghaininitialarabic" unicode="&#x63a;" horiz-adv-x="561" arabic-form="initial" 
d="M347 592q0 22 -15.5 37.5t-36.5 15.5t-36 -15.5t-15 -37.5q0 -21 15 -36.5t36 -15.5t36.5 15.5t15.5 36.5zM524 0l-71 84h-257v187q0 44 26 72t70 28q45 0 81 -43l71 64q-61 59 -141 59q-95 0 -149 -57q-53 -56 -53 -139v-171h-111v-84h534z" />
    <glyph glyph-name="ghainmedialarabic" unicode="&#x63a;" horiz-adv-x="530" arabic-form="medial" 
d="M348 592q0 22 -15.5 37.5t-36.5 15.5q-20 0 -35.5 -15.5t-15.5 -37.5q0 -21 15.5 -36.5t35.5 -15.5q21 0 36.5 15.5t15.5 36.5zM542 0v84h-345v187q0 43 27 71.5t69 28.5q46 0 82 -43l70 64q-61 59 -141 59q-95 0 -149 -56q-53 -56 -53 -140v-171h-114v-84h554z" />
    <glyph glyph-name="fehfinalarabic" unicode="&#x641;" horiz-adv-x="838" arabic-form="final" 
d="M627 592q0 22 -15 37.5t-36 15.5t-36.5 -15.5t-15.5 -37.5q0 -21 15.5 -36.5t36.5 -15.5t36 15.5t15 36.5zM850 0v82h-142q61 67 63 142q3 96 -40 155q-51 72 -157 72q-104 0 -155 -72q-43 -59 -40 -155q2 -74 63 -140h-200q-99 0 -99 98v187l-94 -96v-101
q0 -77 49.5 -124.5t130.5 -47.5h288q29 0 59 6q28 -6 57 -6h217zM576 367q49 0 76.5 -33t27.5 -86q0 -49 -26 -93q-29 -48 -78 -64q-50 16 -79 64q-26 44 -26 93q0 52 28 85.5t77 33.5z" />
    <glyph glyph-name="fehinitialarabic" unicode="&#x641;" horiz-adv-x="494" arabic-form="initial" 
d="M309 592q0 21 -15.5 36t-36.5 15t-36.5 -15t-15.5 -36t15.5 -36.5t36.5 -15.5t36.5 15.5t15.5 36.5zM458 157v153q0 65 -47 109q-53 51 -154 51q-90 0 -142 -43.5t-52 -116.5q0 -80 32 -117q37 -43 133 -43h135q0 -46 -32 -60q-17 -6 -70 -6h-273v-84h285q91 0 132 31
q53 38 53 126zM363 307v-77h-116q-60 0 -75 12q-15 14 -15 65q0 79 100 79q106 0 106 -79z" />
    <glyph glyph-name="fehmedialarabic" unicode="&#x641;" horiz-adv-x="531" arabic-form="medial" 
d="M320 592q0 22 -15.5 37.5t-36.5 15.5t-36.5 -15.5t-15.5 -37.5q0 -21 15.5 -36.5t36.5 -15.5t36.5 15.5t15.5 36.5zM544 0v82h-143q61 67 64 142q1 94 -41 155q-51 72 -156 72q-104 0 -156 -72q-42 -60 -39 -155q2 -76 62 -142h-147v-82h221q31 0 59 6q30 -6 59 -6h217z
M268 367q49 0 77 -35t28 -88q0 -52 -26 -96q-29 -51 -79 -67q-48 16 -79 67q-25 43 -25 96t28.5 88t75.5 35z" />
    <glyph glyph-name="qaffinalarabic" unicode="&#x642;" horiz-adv-x="684" arabic-form="final" 
d="M533 592q0 21 -15.5 36t-36.5 15t-36.5 -15t-15.5 -36t15.5 -36.5t36.5 -15.5t36.5 15.5t15.5 36.5zM399 592q0 21 -15.5 36t-37.5 15q-21 0 -36.5 -15t-15.5 -36t15.5 -36.5t36.5 -15.5q22 0 37.5 15.5t15.5 36.5zM696 0v82h-92v130q0 97 -41 161q-49 78 -155 78
q-104 0 -156 -78q-40 -64 -40 -161q0 -212 216 -212h82q-1 -104 -172 -103q-110 0 -157 56t-47 197l-85 -31q12 -161 65 -228q66 -83 223 -83q253 0 266 192h93zM510 84h-80q-66 0 -92 25q-32 30 -32 103q0 156 102 156t102 -156v-128z" />
    <glyph glyph-name="qafinitialarabic" unicode="&#x642;" horiz-adv-x="494" arabic-form="initial" 
d="M370 592q0 21 -15.5 36t-35.5 15q-21 0 -36.5 -15t-15.5 -36t15.5 -36.5t36.5 -15.5q20 0 35.5 15.5t15.5 36.5zM236 592q0 21 -15.5 36t-37.5 15q-21 0 -36 -15t-15 -36t15 -36.5t36 -15.5q22 0 37.5 15.5t15.5 36.5zM458 157v153q0 65 -47 109q-53 51 -154 51
q-90 0 -142 -43.5t-52 -116.5q0 -80 32 -117q37 -43 133 -43h135q0 -46 -32 -60q-17 -6 -70 -6h-273v-84h285q91 0 132 31q53 38 53 126zM363 307v-77h-116q-60 0 -75 12q-15 14 -15 65q0 79 100 79q106 0 106 -79z" />
    <glyph glyph-name="qafmedialarabic" unicode="&#x642;" horiz-adv-x="531" arabic-form="medial" 
d="M384 592q0 21 -15.5 36t-36.5 15t-36.5 -15t-15.5 -36t15.5 -36.5t36.5 -15.5t36.5 15.5t15.5 36.5zM250 592q0 21 -15.5 36t-37.5 15q-21 0 -36.5 -15t-15.5 -36t15.5 -36.5t36.5 -15.5q22 0 37.5 15.5t15.5 36.5zM544 0v82h-143q61 67 64 142q1 94 -41 155
q-51 72 -156 72q-104 0 -156 -72q-42 -60 -39 -155q2 -76 62 -142h-147v-82h221q31 0 59 6q30 -6 59 -6h217zM268 367q49 0 77 -35t28 -88q0 -52 -26 -96q-29 -51 -79 -67q-48 16 -79 67q-25 43 -25 96t28.5 88t75.5 35z" />
    <glyph glyph-name="kaffinalarabic" unicode="&#x643;" horiz-adv-x="919" arabic-form="final" 
d="M931 0v84h-36q-123 0 -123 128v433l-93 -28v-435q0 -98 -100 -98h-337q-99 0 -99 98v187l-94 -96v-101q0 -77 49.5 -124.5t130.5 -47.5h355q109 0 158 70q46 -70 147 -70h42zM563 300v58h-163v29q0 68 58 68q29 0 51 -28l44 43q-41 42 -88 42q-58 0 -92 -38t-34 -96v-20
h-49l-48 -58h321z" />
    <glyph glyph-name="kafinitialarabic" unicode="&#x643;" horiz-adv-x="592" arabic-form="initial" 
d="M555 0q0 170 -3 191q-12 103 -83 165q-71 63 -174 63q-21 0 -44 -3l216 227h-124l-311 -324l65 -61q67 78 175 78q83 0 134 -48q37 -34 48 -97q5 -38 4 -109h-470v-82h567z" />
    <glyph glyph-name="kafmedialarabic" unicode="&#x643;" horiz-adv-x="665" arabic-form="medial" 
d="M678 0v84h-122q1 40 -1 85q-9 110 -77 180q-70 70 -183 70q-21 0 -44 -3l216 227h-124l-311 -324l65 -61q67 78 175 78q83 0 134 -48q37 -34 48 -97q5 -38 4 -109h-470v-82h690z" />
    <glyph glyph-name="lamfinalarabic" unicode="&#x644;" horiz-adv-x="733" arabic-form="final" 
d="M745 0v84h-141v559l-95 -29v-589q0 -72 -47 -104q-39 -24 -124 -24q-107 0 -151 56q-43 55 -43 197l-95 -31q13 -156 70 -228q68 -83 218 -83q249 0 266 192h142z" />
    <glyph glyph-name="laminitialarabic" unicode="&#x644;" horiz-adv-x="277" arabic-form="initial" 
d="M240 177v466l-95 -28v-429q0 -102 -98 -102h-59v-84h64q85 0 137 50q51 51 51 127z" />
    <glyph glyph-name="lammedialarabic" unicode="&#x644;" horiz-adv-x="402" arabic-form="medial" 
d="M415 0v84h-60q-98 0 -98 97v464l-95 -30v-429q0 -102 -99 -102h-75v-84h81q91 0 141 54q52 -54 139 -54h66z" />
    <glyph glyph-name="meemfinalarabic" unicode="&#x645;" horiz-adv-x="828" arabic-form="final" 
d="M840 0v84h-22q-70 0 -98 40q-25 34 -25 107q0 95 -39 150q-49 70 -153 70h-236q-107 0 -159 -41q-59 -48 -59 -159v-445l95 28v417q0 69 32 92q28 21 109 21h54q-29 -50 -29 -133q0 -91 41 -149q49 -67 152 -67t153 71q41 -86 156 -86h28zM601 231q0 -133 -98 -133
t-98 133q0 137 98 137t98 -137z" />
    <glyph glyph-name="meeminitialarabic" unicode="&#x645;" horiz-adv-x="549" arabic-form="initial" 
d="M512 214q0 90 -41 148q-49 67 -152 67q-104 0 -153 -67q-41 -58 -41 -148v-32q0 -100 -98 -100h-39v-82h45q99 0 147 53q53 -53 139 -53q102 0 152 68q41 56 41 146zM417 214q0 -133 -98 -133q-99 0 -99 133q0 134 99 134q98 0 98 -134z" />
    <glyph glyph-name="meemmedialarabic" unicode="&#x645;" horiz-adv-x="665" arabic-form="medial" 
d="M674 0v84l-20 -2q-106 0 -123 98q-14 91 -56 130q-48 45 -145 45q-177 0 -202 -175q-12 -96 -119 -96h-26v-84h32q80 0 124 50q20 -57 71 -88.5t120 -31.5q72 0 124 35t70 98q48 -63 137 -63h13zM435 143q0 -133 -105 -133q-106 0 -106 133t106 133q105 0 105 -133z" />
    <glyph glyph-name="noonfinalarabic" unicode="&#x646;" horiz-adv-x="754" arabic-form="final" 
d="M379 282q0 21 -15.5 36t-36.5 15t-36 -15t-15 -36t15 -36.5t36 -15.5t36.5 15.5t15.5 36.5zM766 0v84h-162v273l-95 -29v-298q0 -136 -172 -136q-105 0 -149.5 50t-44.5 167v87l-94 -28q-3 -172 43 -251q64 -111 244 -111q254 0 267 192h163z" />
    <glyph glyph-name="nooninitialarabic" unicode="&#x646;" horiz-adv-x="290" arabic-form="initial" 
d="M193 592q0 22 -15.5 37.5t-36.5 15.5q-20 0 -35.5 -15.5t-15.5 -37.5q0 -21 15.5 -36.5t35.5 -15.5q21 0 36.5 15.5t15.5 36.5zM253 177v274l-94 -28v-239q0 -102 -99 -102h-72v-82h77q85 0 137 50q51 50 51 127z" />
    <glyph glyph-name="noonmedialarabic" unicode="&#x646;" horiz-adv-x="389" arabic-form="medial" 
d="M250 592q0 21 -15.5 36t-36.5 15t-36.5 -15t-15.5 -36t15.5 -36.5t36.5 -15.5t36.5 15.5t15.5 36.5zM401 0v82h-54q-99 0 -99 99v270l-94 -28v-239q0 -102 -100 -102h-66v-82h72q91 0 142 53q51 -53 139 -53h60z" />
    <glyph glyph-name="hehfinalarabic" unicode="&#x647;" horiz-adv-x="589" arabic-form="final" 
d="M601 0v82h-60q-98 0 -98 102v267h-203q-191 0 -191 -222q0 -229 191 -229q113 0 147 70q31 -70 149 -70h65zM348 374v-145q0 -73 -20 -107q-22 -40 -82 -40t-82 40q-20 34 -20 107q0 74 20 106q22 39 82 39h102z" />
    <glyph glyph-name="hehinitialarabic" unicode="&#x647;" horiz-adv-x="552" arabic-form="initial" 
d="M515 0v165q0 146 -39 218q-58 103 -213 103h-120l-109 -84h217q107 0 141 -67q26 -49 26 -170v-81h-90q27 33 27 107q0 63 -28 103q-34 52 -106 52q-71 0 -107 -52q-28 -40 -28 -103q0 -94 31 -107h-132v-84h530zM280 191q0 -109 -59 -109t-59 109q0 87 59 87t59 -87z
" />
    <glyph glyph-name="hehmedialarabic" unicode="&#x647;" horiz-adv-x="694" arabic-form="medial" 
d="M706 0v84h-103v43q0 119 -11 172q-13 68 -59 109q-69 63 -180 63t-182 -86q-69 -86 -68 -209q1 -55 19 -92h-134v-84h718zM510 127v-43h-119q31 22 31 96q0 75 -36 127q-43 64 -120 64q32 16 87 16q111 2 141 -86q16 -42 16 -174zM262 84q-36 0 -55 27t-19 70t20 78
q21 35 54 35t54 -35t21 -78t-19.5 -70t-55.5 -27z" />
    <glyph glyph-name="wawfinalarabic" unicode="&#x648;" horiz-adv-x="534" arabic-form="final" 
d="M546 0v82h-109q2 100 2 122q0 234 -191 234q-102 0 -155 -74q-44 -62 -44 -160q0 -90 51 -144q54 -58 155 -60h78q-6 -46 -38.5 -77t-78.5 -32q-72 -3 -157 35l42 -92q41 -26 117 -26q88 0 145 58q52 52 65 134h118zM344 204l-1 -122h-88q-111 0 -111 122q0 151 104 151
q62 0 83 -50q13 -30 13 -101z" />
    <glyph glyph-name="alefmaksurafinalarabic" unicode="&#x649;" horiz-adv-x="555" arabic-form="final" 
d="M555 0v82h-41q-47 0 -71.5 18t-43.5 66l-44 -90q30 -68 123 -76q-6 -70 -66 -93q-30 -13 -103 -13q-82 -1 -126 47t-44 135q0 102 59 234l-109 -66q-40 -95 -40 -186q0 -112 60 -176q68 -74 200 -74q113 0 178 46q74 51 68 146z" />
    <glyph glyph-name="yehfinalarabic" unicode="&#x64a;" horiz-adv-x="555" arabic-form="final" 
d="M555 0v82h-41q-47 0 -71.5 18t-43.5 66l-44 -90q30 -68 123 -76q-6 -70 -66 -93q-30 -13 -103 -13q-82 -1 -126 47t-44 135q0 102 59 234l-109 -66q-40 -95 -40 -186q0 -112 60 -176q68 -74 200 -74q113 0 178 46q74 51 68 146zM427 -323q0 20 -15.5 35.5t-36.5 15.5
t-36.5 -15t-15.5 -36t15 -36.5t37 -15.5q21 0 36.5 15.5t15.5 36.5zM292 -323q0 21 -15 36t-37 15q-21 0 -36.5 -15.5t-15.5 -35.5q0 -21 15.5 -36.5t36.5 -15.5q22 0 37 15.5t15 36.5z" />
    <glyph glyph-name="yehinitialarabic" unicode="&#x64a;" horiz-adv-x="290" arabic-form="initial" 
d="M253 177v274l-94 -28v-239q0 -102 -99 -102h-72v-82h77q85 0 137 50q51 50 51 127zM232 -140q0 21 -15 36t-36 15q-22 0 -37.5 -15t-15.5 -36t15.5 -36.5t37.5 -15.5q21 0 36 15.5t15 36.5zM97 -140q0 21 -15.5 36t-35.5 15q-21 0 -36.5 -15t-15.5 -36t15.5 -36.5
t36.5 -15.5q20 0 35.5 15.5t15.5 36.5z" />
    <glyph glyph-name="yehmedialarabic" unicode="&#x64a;" horiz-adv-x="389" arabic-form="medial" 
d="M401 0v82h-54q-99 0 -99 99v270l-94 -28v-239q0 -102 -100 -102h-66v-82h72q91 0 142 53q51 -53 139 -53h60zM321 -140q0 21 -15.5 36t-36.5 15t-36 -15t-15 -36t15 -36.5t36 -15.5t36.5 15.5t15.5 36.5zM187 -140q0 21 -15.5 36t-36.5 15q-22 0 -36.5 -15t-14.5 -36
t15 -36.5t36 -15.5t36.5 15.5t15.5 36.5z" />
    <glyph glyph-name=".notdef" horiz-adv-x="500" 
d="M63 0h375v750h-375v-750zM125 63v625h250v-625h-250z" />
    <glyph glyph-name=".null" 
 />
    <glyph glyph-name="nonmarkingreturn" horiz-adv-x="333" 
 />
    <glyph glyph-name="space" unicode=" " horiz-adv-x="162" 
 />
    <glyph glyph-name="exclam" unicode="!" horiz-adv-x="213" 
d="M164 643h-115l21 -461h74zM159 0v101h-104v-101h104z" />
    <glyph glyph-name="quotedbl" unicode="&#x22;" horiz-adv-x="292" 
d="M127 611q0 57 -48 57t-48 -57q0 -9 14 -99q5 -30 34 -30q23 0 30 24q18 51 18 105zM254 611q0 57 -48 57t-48 -57q0 -9 14 -99q4 -30 34 -30q22 0 30 24q18 51 18 105z" />
    <glyph glyph-name="dollar" unicode="$" horiz-adv-x="584" 
d="M535 193q0 87 -54 134q-41 37 -123 49l-31 5v200q75 -8 121 -51l64 63q-73 68 -176 74v82h-76v-84q-87 -7 -138 -58t-51 -132q0 -78 46.5 -124t126.5 -55l24 -2v-204q-95 3 -152 63l-67 -67q80 -81 211 -86v-100h76v102q91 9 145 60t54 131zM268 387q-99 14 -99 91
q0 90 99 101v-192zM435 189q0 -87 -108 -98v196q60 -9 83 -29q25 -22 25 -69z" />
    <glyph glyph-name="quotesingle" unicode="'" 
d="M107 611q0 57 -48 57t-48 -57q0 -9 14 -99q4 -30 34 -30q23 0 30 24q18 51 18 105z" />
    <glyph glyph-name="parenleft" unicode="(" horiz-adv-x="307" 
d="M246 -86q-42 42 -52 61q-13 25 -13 77v429q0 50 13 76q30 41 52 60l-64 64q-58 -59 -75 -87q-21 -38 -21 -107v-441q0 -69 21 -108q12 -22 33 -45l42 -42z" />
    <glyph glyph-name="parenright" unicode=")" horiz-adv-x="307" 
d="M221 46v441q0 69 -21 107q-13 23 -34 44l-41 43l-64 -64q43 -43 52 -60q14 -28 14 -76v-429q0 -51 -14 -77q-33 -43 -52 -61l64 -63q59 59 75 87q21 39 21 108z" />
    <glyph glyph-name="at" unicode="*" horiz-adv-x="390" 
d="M341 96l-111 61l111 62l-20 34l-108 -66l2 128h-40l2 -128l-108 66l-20 -34l111 -62l-111 -61l20 -35l108 67l-2 -128h40l-2 128l108 -67z" />
    <glyph glyph-name="plus" unicode="+" horiz-adv-x="496" 
d="M446 155v87h-154v155h-88v-155h-155v-87h155v-155h88v155h154z" />
    <glyph glyph-name="hyphen" unicode="-" horiz-adv-x="466" 
d="M417 199v75h-368v-75h368z" />
    <glyph glyph-name="period" unicode="." horiz-adv-x="369" 
d="M289 65q0 27 -19.5 47t-48.5 20q-27 0 -46.5 -20t-19.5 -47q0 -28 19.5 -47.5t46.5 -19.5q29 0 48.5 19.5t19.5 47.5z" />
    <glyph glyph-name="slash" unicode="/" horiz-adv-x="235" 
d="M325 643h-94l-322 -643h93z" />
    <glyph glyph-name="zero" unicode="0" horiz-adv-x="233" 
d="M167 75v124l-101 27v-124z" />
    <glyph glyph-name="one" unicode="1" horiz-adv-x="226" 
d="M160 0v643h-94v-613z" />
    <glyph glyph-name="two" unicode="2" horiz-adv-x="518" 
d="M452 563v80h-272q-34 0 -61 -12q-53 -26 -53 -92v-509l94 -30v529q0 31 27 34h265z" />
    <glyph glyph-name="three" unicode="3" horiz-adv-x="592" 
d="M526 481v164h-96v-158q0 -37 -3 -49q-7 -21 -30 -21q-43 0 -54 63v165h-96v-158q-2 -42 -2 -44q-8 -26 -30 -26q-48 0 -55 61v167h-94v-615l94 -30v346q28 -16 55 -16q59 -2 93 44q30 -44 89 -44q129 0 129 151z" />
    <glyph glyph-name="four" unicode="4" horiz-adv-x="545" 
d="M479 0l-41 84h-171q-49 0 -79 27.5t-30 74.5q0 109 113 109h100v80h-100q-101 0 -101 95t97 95h145v78h-145q-83 0 -136 -47t-53 -126q0 -86 63 -131q-75 -47 -75 -153q0 -86 57 -136q59 -50 144 -50h212z" />
    <glyph glyph-name="five" unicode="5" horiz-adv-x="538" 
d="M472 218q0 145 -202 284q-204 -129 -204 -284q0 -94 52 -153q56 -65 151 -65q98 0 154 65q49 59 49 153zM377 218q0 -137 -108 -137t-108 137q0 102 108 184q108 -82 108 -184z" />
    <glyph glyph-name="six" unicode="6" horiz-adv-x="518" 
d="M452 0v539q0 66 -53 92q-27 12 -61 12h-272v-80h266q27 -3 27 -34v-499z" />
    <glyph glyph-name="seven" unicode="7" horiz-adv-x="666" 
d="M600 643h-102l-165 -503l-165 503h-102l224 -643h85z" />
    <glyph glyph-name="eight" unicode="8" horiz-adv-x="666" 
d="M600 0l-225 643h-85l-224 -643h102l165 504l165 -504h102z" />
    <glyph glyph-name="nine" unicode="9" horiz-adv-x="521" 
d="M455 430q0 89 -46 147q-53 66 -149 66q-103 0 -154 -71q-40 -58 -40 -153q0 -94 40 -152q51 -71 154 -71q56 0 100 24v-220l95 30v400zM361 419q0 -141 -101 -141t-101 141q0 142 101 142t101 -142z" />
    <glyph glyph-name="colon" unicode=":" horiz-adv-x="368" 
d="M288 320q0 28 -19 47.5t-48 19.5q-27 0 -46.5 -19.5t-19.5 -47.5q0 -27 19.5 -47t46.5 -20q29 0 48 19.5t19 47.5zM288 65q0 28 -19 47.5t-48 19.5q-27 0 -46.5 -20t-19.5 -47q0 -28 19.5 -47.5t46.5 -19.5q29 0 48 19.5t19 47.5z" />
    <glyph glyph-name="less" unicode="&#x3c;" horiz-adv-x="434" 
d="M377 -10l-234 233l234 234h-89l-234 -234l234 -233h89z" />
    <glyph glyph-name="equal" unicode="=" horiz-adv-x="496" 
d="M446 387v88h-397v-88h397zM446 208v87h-397v-87h397z" />
    <glyph glyph-name="greater" unicode="&#x3e;" horiz-adv-x="402" 
d="M359 223l-234 234h-89l234 -234l-234 -233h89z" />
    <glyph glyph-name="bracketleft" unicode="[" horiz-adv-x="330" 
d="M289 -84v83h-109v628h109v83h-202v-794h202z" />
    <glyph glyph-name="backslash" unicode="\" horiz-adv-x="437" 
d="M351 -60l-260 786h-91l261 -786h90z" />
    <glyph glyph-name="bracketright" unicode="]" horiz-adv-x="330" 
d="M242 -84v794h-201v-83h109v-628h-109v-83h201z" />
    <glyph glyph-name="underscore" unicode="_" horiz-adv-x="234" 
d="M269 -98v41h-305v-41h305z" />
    <glyph glyph-name="braceleft" unicode="{" horiz-adv-x="383" 
d="M338 -84v84h-37q-35 0 -49 9q-17 14 -17 64v147q0 66 -62 92q62 27 62 93v148q0 45 13 59t53 14h37v84h-66q-132 0 -132 -128v-155q0 -73 -60 -73h-34v-82h34q60 0 60 -74v-154q0 -128 132 -128h66z" />
    <glyph glyph-name="bar" unicode="|" horiz-adv-x="157" 
d="M44 -65h73v780h-73v-780z" />
    <glyph glyph-name="braceright" unicode="}" horiz-adv-x="383" 
d="M338 272v82h-34q-62 0 -62 73v155q0 128 -131 128h-65v-84h35q38 0 49 -10q19 -13 19 -63v-148q0 -66 60 -93q-60 -26 -60 -92v-147q0 -45 -13 -59t-55 -14h-35v-84h65q131 0 131 128v154q0 74 62 74h34z" />
    <glyph glyph-name="nbspace" unicode="&#xa0;" horiz-adv-x="623" 
 />
    <glyph glyph-name="guillemotleft" unicode="&#xab;" horiz-adv-x="455" 
d="M410 369h-68q-66 -90 -66 -185q0 -91 66 -184h68q-55 107 -55 183t55 186zM274 369h-67q-67 -89 -67 -185q0 -92 67 -184h67q-54 108 -54 183t54 186z" />
    <glyph glyph-name="guillemotright" unicode="&#xbb;" horiz-adv-x="455" 
d="M315 184q0 93 -68 185h-67q54 -113 54 -186t-53 -184h67q67 94 67 185zM180 184q0 94 -67 185h-67q54 -113 54 -186q0 -74 -54 -184h67q67 94 67 185z" />
    <glyph glyph-name="multiply" unicode="&#xd7;" horiz-adv-x="485" 
d="M435 58l-134 135l134 134l-59 59l-134 -134l-134 134l-59 -59l135 -134l-135 -135l59 -58l134 134l134 -134z" />
    <glyph glyph-name="divide" unicode="&#xf7;" horiz-adv-x="492" 
d="M290 339v83h-88v-83h88zM443 200v77h-394v-77h394zM290 54v83h-88v-83h88z" />
    <glyph glyph-name="commaarabic" unicode="&#x60c;" horiz-adv-x="230" 
d="M169 -1v249l-108 -87v-162h108z" />
    <glyph glyph-name="semicolonarabic" unicode="&#x61b;" horiz-adv-x="368" 
d="M274 280v250l-107 -87v-163h107zM288 66q0 29 -20 48.5t-47 19.5q-28 0 -47 -19.5t-19 -48.5q0 -27 19 -46.5t47 -19.5q27 0 47 19.5t20 46.5z" />
    <glyph glyph-name="questionarabic" unicode="&#x61f;" horiz-adv-x="466" 
d="M417 462q0 78 -53 128t-130 50q-78 0 -132 -48q-53 -48 -53 -128q0 -48 43 -115l73 -98q16 -22 16 -78h95q0 51 -4 66q-4 25 -28 57l-57 73q-43 61 -43 95q0 39 25.5 65.5t64.5 26.5q41 0 65 -26.5t24 -67.5h94zM271 0v82h-83v-82h83z" />
    <glyph glyph-name="tatweelarabic" unicode="&#x640;" horiz-adv-x="161" 
d="M173 0v84h-185v-84h185z" />
    <glyph glyph-name="maddaabove" unicode="&#x653;" 
d="M378 703l-44 32q-29 -26 -52 -26q-16 0 -51 15q-33 16 -63 16q-40 0 -96 -42l44 -31q28 26 59 26q15 0 47 -16q33 -15 60 -15q40 0 96 41z" />
    <glyph glyph-name="hamzaabove" unicode="&#x654;" 
d="M302 664v34h-79v20q0 35 24 35q17 0 27 -15l22 28q-21 21 -46 21q-64 0 -64 -69v-20h-28l-21 -34h165z" />
    <glyph glyph-name="hamzabelow" unicode="&#x655;" 
d="M290 -195v35h-79v19q0 35 24 35q17 0 27 -15l22 28q-21 21 -46 21q-63 0 -63 -69v-19h-29l-21 -35h165z" />
    <glyph glyph-name="zeroarabic" unicode="&#x660;" horiz-adv-x="233" 
d="M167 75v124l-101 27v-124z" />
    <glyph glyph-name="onearabic" unicode="&#x661;" horiz-adv-x="226" 
d="M160 0v643h-94v-613z" />
    <glyph glyph-name="twoarabic" unicode="&#x662;" horiz-adv-x="518" 
d="M452 563v80h-272q-34 0 -61 -12q-53 -26 -53 -92v-509l94 -30v529q0 31 27 34h265z" />
    <glyph glyph-name="threearabic" unicode="&#x663;" horiz-adv-x="592" 
d="M526 481v164h-96v-158q0 -37 -3 -49q-7 -21 -30 -21q-43 0 -54 63v165h-96v-158q-2 -42 -2 -44q-8 -26 -30 -26q-48 0 -55 61v167h-94v-615l94 -30v346q28 -16 55 -16q59 -2 93 44q30 -44 89 -44q129 0 129 151z" />
    <glyph glyph-name="fourarabic" unicode="&#x664;" horiz-adv-x="545" 
d="M479 0l-41 84h-171q-49 0 -79 27.5t-30 74.5q0 109 113 109h100v80h-100q-101 0 -101 95t97 95h145v78h-145q-83 0 -136 -47t-53 -126q0 -86 63 -131q-75 -47 -75 -153q0 -86 57 -136q59 -50 144 -50h212z" />
    <glyph glyph-name="fivearabic" unicode="&#x665;" horiz-adv-x="538" 
d="M472 218q0 145 -202 284q-204 -129 -204 -284q0 -94 52 -153q56 -65 151 -65q98 0 154 65q49 59 49 153zM377 218q0 -137 -108 -137t-108 137q0 102 108 184q108 -82 108 -184z" />
    <glyph glyph-name="sixarabic" unicode="&#x666;" horiz-adv-x="518" 
d="M452 0v539q0 66 -53 92q-27 12 -61 12h-272v-80h266q27 -3 27 -34v-499z" />
    <glyph glyph-name="sevenarabic" unicode="&#x667;" horiz-adv-x="666" 
d="M600 643h-102l-165 -503l-165 503h-102l224 -643h85z" />
    <glyph glyph-name="eightarabic" unicode="&#x668;" horiz-adv-x="666" 
d="M600 0l-225 643h-85l-224 -643h102l165 504l165 -504h102z" />
    <glyph glyph-name="ninearabic" unicode="&#x669;" horiz-adv-x="521" 
d="M455 430q0 89 -46 147q-53 66 -149 66q-103 0 -154 -71q-40 -58 -40 -153q0 -94 40 -152q51 -71 154 -71q56 0 100 24v-220l95 30v400zM361 419q0 -141 -101 -141t-101 141q0 142 101 142t101 -142z" />
    <glyph glyph-name="percentarabic" unicode="&#x66a;" horiz-adv-x="477" 
d="M229 513v91l-75 22v-92zM428 668h-68l-311 -668h68zM326 37v91l-75 22v-91z" />
    <glyph glyph-name="decimalseparatorarabic" unicode="&#x66b;" horiz-adv-x="230" 
d="M169 -1v249l-108 -87v-162h108z" />
    <glyph glyph-name="thousandsseparatorarabic" unicode="&#x66c;" horiz-adv-x="230" 
d="M169 -1v249l-108 -87v-162h108z" />
    <glyph glyph-name="asteriskarabic" unicode="&#x66d;" horiz-adv-x="500" 
d="M447 245l-9 20l-138 -20l-38 143h-20l-39 -143l-138 21l-9 -21l117 -93l-52 -139l17 -13l114 94l113 -94l17 15l-51 138z" />
    <glyph glyph-name="superscriptalef" unicode="&#x670;" 
d="M23 684h54v234h-54v-234z" />
    <glyph glyph-name="extendedarabicindicdigitzero" unicode="&#x6f0;" horiz-adv-x="233" 
d="M167 75v124l-101 27v-124z" />
    <glyph glyph-name="extendedarabicindicdigitone" unicode="&#x6f1;" horiz-adv-x="226" 
d="M160 0v643h-94v-613z" />
    <glyph glyph-name="extendedarabicindicdigittwo" unicode="&#x6f2;" horiz-adv-x="518" 
d="M452 563v80h-272q-34 0 -61 -12q-53 -26 -53 -92v-509l94 -30v529q0 31 27 34h265z" />
    <glyph glyph-name="extendedarabicindicdigitthree" unicode="&#x6f3;" horiz-adv-x="592" 
d="M526 481v164h-96v-158q0 -37 -3 -49q-7 -21 -30 -21q-43 0 -54 63v165h-96v-158q-2 -42 -2 -44q-8 -26 -30 -26q-48 0 -55 61v167h-94v-615l94 -30v346q28 -16 55 -16q59 -2 93 44q30 -44 89 -44q129 0 129 151z" />
    <glyph glyph-name="extendedarabicindicdigitfour" unicode="&#x6f4;" horiz-adv-x="545" 
d="M479 0l-41 84h-171q-49 0 -79 27.5t-30 74.5q0 109 113 109h100v80h-100q-101 0 -101 95t97 95h145v78h-145q-83 0 -136 -47t-53 -126q0 -86 63 -131q-75 -47 -75 -153q0 -86 57 -136q59 -50 144 -50h212z" />
    <glyph glyph-name="extendedarabicindicdigitfive" unicode="&#x6f5;" horiz-adv-x="538" 
d="M472 218q0 145 -202 284q-204 -129 -204 -284q0 -94 52 -153q56 -65 151 -65q98 0 154 65q49 59 49 153zM377 218q0 -137 -108 -137t-108 137q0 102 108 184q108 -82 108 -184z" />
    <glyph glyph-name="extendedarabicindicdigitsix" unicode="&#x6f6;" horiz-adv-x="518" 
d="M452 0v539q0 66 -53 92q-27 12 -61 12h-272v-80h266q27 -3 27 -34v-499z" />
    <glyph glyph-name="extendedarabicindicdigitseven" unicode="&#x6f7;" horiz-adv-x="666" 
d="M600 643h-102l-165 -503l-165 503h-102l224 -643h85z" />
    <glyph glyph-name="extendedarabicindicdigiteight" unicode="&#x6f8;" horiz-adv-x="666" 
d="M600 0l-225 643h-85l-224 -643h102l165 504l165 -504h102z" />
    <glyph glyph-name="extendedarabicindicdigitnine" unicode="&#x6f9;" horiz-adv-x="521" 
d="M455 430q0 89 -46 147q-53 66 -149 66q-103 0 -154 -71q-40 -58 -40 -153q0 -94 40 -152q51 -71 154 -71q56 0 100 24v-220l95 30v400zM361 419q0 -141 -101 -141t-101 141q0 142 101 142t101 -142z" />
    <glyph glyph-name="zeronojoin" unicode="&#x200c;" horiz-adv-x="20" 
d="M20 0v722h-20v-722h20z" />
    <glyph glyph-name="zerojoin" unicode="&#x200d;" horiz-adv-x="20" 
d="M71 663l-47 48l47 47l-14 14l-47 -48l-47 48l-14 -14l48 -47l-48 -48l14 -13l37 37v-687h20v687l37 -37z" />
    <glyph glyph-name="lefttoright" unicode="&#x200e;" horiz-adv-x="20" 
d="M134 711l-60 61l-14 -14l36 -36h-96v-722h20v702h78l-38 -38l14 -14z" />
    <glyph glyph-name="righttoleft" unicode="&#x200f;" horiz-adv-x="20" 
d="M20 0v722h-96l36 36l-14 14l-60 -61l60 -61l14 14l-38 38h78v-702h20z" />
    <glyph glyph-name="hyphenminus" unicode="&#x2010;" horiz-adv-x="454" 
d="M24 192h421v39h-421v-39z" />
    <glyph glyph-name="quotedblleft" unicode="&#x201c;" horiz-adv-x="292" 
d="M157 539q0 -57 48 -57t48 57q0 9 -14 99q-5 30 -34 30q-23 0 -30 -24q-18 -51 -18 -105zM30 539q0 -57 48 -57t48 57q0 9 -14 99q-4 30 -34 30q-22 0 -30 -24q-18 -51 -18 -105z" />
    <glyph glyph-name="quotedblright" unicode="&#x201d;" horiz-adv-x="292" 
d="M127 611q0 57 -48 57t-48 -57q0 -9 14 -99q5 -30 34 -30q23 0 30 24q18 51 18 105zM254 611q0 57 -48 57t-48 -57q0 -9 14 -99q4 -30 34 -30q22 0 30 24q18 51 18 105z" />
    <glyph glyph-name="delete" unicode="&#x2421;" horiz-adv-x="709" 
d="M674 57v31h-127v229h-36v-260h163zM479 57v31h-159v88h143v31h-143v79h153v31h-189v-260h195zM253 189q0 106 -79 124q-13 4 -46 4h-90v-260h95q21 0 41 5q79 19 79 127zM218 189q0 -55 -26 -83q-20 -18 -63 -18h-56v198h55q29 0 44 -5q46 -18 46 -92z" />
    <glyph glyph-name="ornateleftparenthesis" unicode="&#xfd3e;" horiz-adv-x="307" 
d="M246 -86q-42 42 -52 61q-13 25 -13 77v429q0 50 13 76q30 41 52 60l-64 64q-58 -59 -75 -87q-21 -38 -21 -107v-441q0 -69 21 -108q12 -22 33 -45l42 -42z" />
    <glyph glyph-name="ornaterightparenthesis" unicode="&#xfd3f;" horiz-adv-x="307" 
d="M221 46v441q0 69 -21 107q-13 23 -34 44l-41 43l-64 -64q43 -43 52 -60q14 -28 14 -76v-429q0 -51 -14 -77q-33 -43 -52 -61l64 -63q59 59 75 87q21 39 21 108z" />
    <glyph glyph-name="zerowidthnobreakspace" unicode="&#xfeff;" 
 />
    <glyph glyph-name="CR" horiz-adv-x="333" 
 />
    <glyph glyph-name="_4" horiz-adv-x="280" 
 />
    <glyph glyph-name="_13" horiz-adv-x="273" 
 />
    <glyph glyph-name="kashidaautoarabic" horiz-adv-x="80" 
d="M100 0v82h-112v-82h112z" />
    <glyph glyph-name="nonbreakingspace" horiz-adv-x="623" 
 />
    <glyph glyph-name="_246" 
 />
  </font>
</defs>
</svg>
